<svg xmlns="http://www.w3.org/2000/svg" xmlns:xlink="http://www.w3.org/1999/xlink" width="180" zoomAndPan="magnify" viewBox="0 0 135 44.999999" height="60" preserveAspectRatio="xMidYMid meet" version="1.0"><defs><g/><clipPath id="0ff700b498"><path d="M 7.183594 5.414062 L 43.183594 5.414062 L 43.183594 39.914062 L 7.183594 39.914062 Z M 7.183594 5.414062 " clip-rule="nonzero"/></clipPath><clipPath id="8c71cf91d1"><path d="M 7.183594 8 L 43.183594 8 L 43.183594 39.914062 L 7.183594 39.914062 Z M 7.183594 8 " clip-rule="nonzero"/></clipPath></defs><g fill="#000000" fill-opacity="1"><g transform="translate(44.730853, 31.546179)"><g><path d="M 17.671875 -19.3125 L 17.3125 -19.25 L 16.890625 -19.3125 L 16.53125 -19.25 L 15.671875 -19.3125 L 15.28125 -19.28125 L 14.859375 -19.3125 L 14.53125 -19.3125 L 14.078125 -19.25 L 12.859375 -19.25 L 12.53125 -19.3125 L 12.140625 -19.25 L 11.265625 -19.3125 L 10.890625 -19.28125 L 10.4375 -19.25 L 10.140625 -19.3125 L 9.234375 -19.3125 L 8.71875 -18.921875 L 8.71875 -18.515625 L 8.53125 -18.15625 L 8.40625 -17.734375 L 8.328125 -17.40625 L 8.203125 -17.046875 L 8.109375 -16.640625 L 7.921875 -16.28125 L 7.90625 -15.890625 L 7.75 -15.5625 L 7.6875 -15.1875 L 7.53125 -14.765625 L 7.46875 -14.40625 L 7.296875 -14.078125 L 7.171875 -13.65625 L 7.140625 -13.34375 L 7.015625 -12.984375 L 6.90625 -12.5625 L 6.6875 -12.171875 L 6.65625 -11.796875 L 6.9375 -11.5 L 7.296875 -11.5 L 7.65625 -11.4375 L 8.078125 -11.4375 L 8.40625 -11.5 L 8.875 -11.4375 L 9.265625 -11.5 L 9.625 -11.46875 L 9.984375 -11.5 L 10.40625 -11.4375 L 10.75 -11.46875 L 11.140625 -11.5 L 11.890625 -11.5 L 12.34375 -11.46875 L 12.734375 -11.5 L 13.46875 -11.5 L 13.828125 -11.46875 L 14.1875 -11.5 L 14.59375 -11.46875 L 14.890625 -11.109375 L 14.828125 -10.65625 L 14.703125 -10.328125 L 14.53125 -9.859375 L 14.078125 -9.53125 L 13.65625 -9.5625 L 12.828125 -9.5625 L 12.4375 -9.5 L 11.75 -9.5 L 11.28125 -9.5625 L 10.953125 -9.53125 L 10.625 -9.53125 L 10.203125 -9.5 L 9.84375 -9.53125 L 9.4375 -9.5625 L 9.078125 -9.5 L 8.625 -9.5625 L 8.265625 -9.53125 L 7.078125 -9.53125 L 6.75 -9.5625 L 6.328125 -9.5625 L 5.8125 -9.140625 L 5.65625 -8.75 L 5.65625 -8.359375 L 5.515625 -7.953125 L 5.421875 -7.65625 L 5.203125 -7.234375 L 5.109375 -6.875 L 5.03125 -6.5 L 4.875 -6.078125 L 4.8125 -5.71875 L 4.65625 -5.359375 L 4.59375 -4.9375 L 4.484375 -4.59375 L 4.390625 -4.140625 L 4.203125 -3.84375 L 4.109375 -3.453125 L 3.96875 -3 L 3.90625 -2.65625 L 3.71875 -2.234375 L 3.609375 -1.875 L 3.515625 -1.546875 L 3.453125 -1.15625 L 3.359375 -0.78125 L 3.203125 -0.328125 L 2.609375 0.03125 L 2.265625 -0.03125 L 1.71875 0.0625 L 1.390625 -0.03125 L 1.03125 -0.359375 L 1.203125 -0.71875 L 1.203125 -1.09375 L 1.421875 -1.515625 L 1.453125 -1.875 L 1.640625 -2.234375 L 1.75 -2.640625 L 1.875 -3 L 1.9375 -3.421875 L 2.09375 -3.78125 L 2.203125 -4.171875 L 2.296875 -4.515625 L 2.421875 -4.90625 L 2.578125 -5.296875 L 2.6875 -5.6875 L 2.71875 -6.015625 L 2.84375 -6.421875 L 2.9375 -6.78125 L 3.09375 -7.203125 L 3.140625 -7.5625 L 3.359375 -7.921875 L 3.421875 -8.296875 L 3.578125 -8.65625 L 3.65625 -9.046875 L 3.75 -9.40625 L 3.90625 -9.8125 L 4 -10.171875 L 4.171875 -10.5625 L 4.171875 -10.921875 L 4.359375 -11.34375 L 4.453125 -11.75 L 4.59375 -12.140625 L 4.65625 -12.46875 L 4.78125 -12.859375 L 4.9375 -13.21875 L 5.046875 -13.65625 L 5.171875 -13.984375 L 5.203125 -14.34375 L 5.390625 -14.734375 L 5.515625 -15.15625 L 5.5625 -15.5 L 5.71875 -15.921875 L 5.875 -16.28125 L 5.9375 -16.609375 L 6.015625 -17.015625 L 6.203125 -17.375 L 6.296875 -17.796875 L 6.390625 -18.125 L 6.484375 -18.515625 L 6.65625 -18.921875 L 6.78125 -19.25 L 6.8125 -19.640625 L 7.015625 -20.03125 L 7.015625 -20.40625 L 7.203125 -20.828125 L 7.71875 -21.1875 L 8.140625 -21.15625 L 8.46875 -21.1875 L 10.8125 -21.1875 L 11.203125 -21.21875 L 11.625 -21.15625 L 11.984375 -21.21875 L 12.40625 -21.1875 L 13.984375 -21.1875 L 14.375 -21.15625 L 14.703125 -21.15625 L 15.15625 -21.1875 L 15.53125 -21.15625 L 16.375 -21.15625 L 16.734375 -21.21875 L 17.0625 -21.1875 L 17.546875 -21.15625 L 17.859375 -21.21875 L 18.34375 -21.21875 L 18.515625 -20.828125 L 18.4375 -20.421875 L 18.28125 -20 L 18.15625 -19.671875 Z M 17.671875 -19.3125 "/></g></g></g><g fill="#000000" fill-opacity="1"><g transform="translate(59.676258, 31.546179)"><g><path d="M -0.0625 -0.390625 L 0.09375 -0.75 L 0.21875 -1.15625 L 0.265625 -1.546875 L 0.453125 -1.9375 L 0.484375 -2.328125 L 0.578125 -2.65625 L 0.703125 -3.03125 L 0.75 -3.421875 L 0.875 -3.84375 L 1.03125 -4.203125 L 1.09375 -4.59375 L 1.15625 -4.96875 L 1.265625 -5.359375 L 1.390625 -5.75 L 1.484375 -6.140625 L 1.546875 -6.5 L 1.75 -6.90625 L 1.78125 -7.265625 L 1.9375 -7.71875 L 2.0625 -8.078125 L 2.09375 -8.40625 L 2.203125 -8.84375 L 2.296875 -9.234375 L 2.359375 -9.5625 L 2.546875 -10.015625 L 2.546875 -10.40625 L 2.71875 -10.8125 L 2.75 -11.171875 L 2.84375 -11.53125 L 3.03125 -11.921875 L 3.09375 -12.3125 L 3.140625 -12.6875 L 3.296875 -13.046875 L 3.84375 -13.4375 L 4.234375 -13.46875 L 4.6875 -13.46875 L 5.046875 -13.046875 L 4.9375 -12.625 L 4.84375 -12.28125 L 4.75 -11.828125 L 4.6875 -11.5 L 4.65625 -11.015625 L 4.546875 -10.625 L 4.390625 -10.296875 L 4.296875 -9.890625 L 4.203125 -9.46875 L 4.171875 -9.109375 L 4.390625 -9.4375 L 4.65625 -9.75 L 4.78125 -10.140625 L 5.046875 -10.5 L 5.265625 -10.828125 L 5.484375 -11.203125 L 5.71875 -11.46875 L 5.96875 -11.859375 L 6.171875 -12.140625 L 6.5 -12.4375 L 6.6875 -12.734375 L 7.078125 -13.046875 L 7.421875 -13.25 L 7.71875 -13.5 L 8.046875 -13.6875 L 8.40625 -13.796875 L 8.875 -13.921875 L 9.5625 -13.890625 L 9.953125 -13.796875 L 10.375 -13.65625 L 10.6875 -13.40625 L 10.921875 -13.171875 L 11.203125 -12.765625 L 11.375 -12.4375 L 11.46875 -12.078125 L 11.53125 -11.71875 L 11.5625 -11.34375 L 11.65625 -10.53125 L 11.53125 -10.109375 L 11.53125 -9.75 L 11.015625 -9.328125 L 10.65625 -9.328125 L 10.296875 -9.375 L 9.890625 -9.375 L 9.625 -9.6875 L 9.75 -10.109375 L 9.75 -10.890625 L 9.65625 -11.234375 L 9.40625 -11.5 L 9.171875 -11.796875 L 8.84375 -11.921875 L 8.171875 -11.984375 L 7.875 -11.890625 L 7.53125 -11.71875 L 7.359375 -11.46875 L 7.015625 -11.265625 L 6.453125 -10.71875 L 6.265625 -10.40625 L 6.078125 -10.015625 L 5.78125 -9.6875 L 5.65625 -9.359375 L 5.453125 -9.015625 L 5.140625 -8.71875 L 5.03125 -8.296875 L 4.8125 -7.984375 L 4.59375 -7.59375 L 4.421875 -7.265625 L 4.328125 -6.84375 L 4.140625 -6.484375 L 4 -6.078125 L 3.8125 -5.71875 L 3.625 -5.328125 L 3.515625 -5 L 3.390625 -4.5625 L 3.171875 -4.203125 L 3.125 -3.875 L 3 -3.484375 L 2.78125 -3.125 L 2.65625 -2.6875 L 2.609375 -2.296875 L 2.484375 -1.9375 L 2.296875 -1.515625 L 2.203125 -1.15625 L 2.125 -0.78125 L 1.90625 -0.390625 L 1.390625 -0.03125 L 1 -0.03125 L 0.640625 0.0625 L 0.328125 0.0625 Z M -0.0625 -0.390625 "/></g></g></g><g fill="#000000" fill-opacity="1"><g transform="translate(71.172722, 31.546179)"><g><path d="M 6.328125 0.484375 L 5.9375 0.421875 L 5.484375 0.421875 L 5.140625 0.234375 L 4.75 0.1875 L 4.421875 -0.03125 L 4 -0.21875 L 3.71875 -0.421875 L 3.359375 -0.671875 L 3.140625 -0.90625 L 2.78125 -1.15625 L 2.578125 -1.515625 L 2.359375 -1.8125 L 2.203125 -2.171875 L 2.0625 -2.515625 L 1.90625 -2.875 L 1.6875 -3.265625 L 1.671875 -3.625 L 1.546875 -4.0625 L 1.515625 -4.484375 L 1.546875 -4.84375 L 1.546875 -6.484375 L 1.609375 -6.84375 L 1.671875 -7.234375 L 1.8125 -7.59375 L 1.9375 -7.984375 L 1.96875 -8.390625 L 2.09375 -8.71875 L 2.296875 -9.140625 L 2.484375 -9.4375 L 2.609375 -9.8125 L 2.84375 -10.171875 L 3.0625 -10.53125 L 3.234375 -10.890625 L 3.421875 -11.203125 L 3.65625 -11.46875 L 3.96875 -11.75 L 4.265625 -12.078125 L 4.546875 -12.375 L 4.78125 -12.5625 L 5.109375 -12.828125 L 5.453125 -13.078125 L 5.84375 -13.21875 L 6.171875 -13.40625 L 6.53125 -13.5625 L 6.875 -13.65625 L 7.265625 -13.734375 L 7.65625 -13.796875 L 8.109375 -13.890625 L 8.921875 -13.890625 L 9.234375 -13.828125 L 9.71875 -13.734375 L 10.015625 -13.59375 L 10.375 -13.46875 L 10.75 -13.21875 L 11.078125 -13.046875 L 11.28125 -12.734375 L 11.5625 -12.40625 L 11.71875 -12.078125 L 11.890625 -11.765625 L 11.921875 -11.375 L 12.046875 -10.953125 L 12.046875 -10.171875 L 11.953125 -9.78125 L 11.921875 -9.375 L 11.796875 -9.015625 L 11.59375 -8.6875 L 11.4375 -8.359375 L 11.171875 -8.015625 L 10.921875 -7.75 L 10.59375 -7.5 L 10.375 -7.171875 L 9.984375 -6.9375 L 9.6875 -6.78125 L 9.328125 -6.5 L 8.953125 -6.359375 L 8.625 -6.171875 L 8.296875 -6.015625 L 7.875 -5.84375 L 7.5 -5.75 L 7.078125 -5.625 L 6.71875 -5.484375 L 5.9375 -5.359375 L 5.59375 -5.234375 L 5.140625 -5.171875 L 4.71875 -5.171875 L 4.328125 -5.140625 L 4 -5.046875 L 3.625 -4.6875 L 3.625 -4.234375 L 3.78125 -3.90625 L 3.84375 -3.515625 L 4.03125 -3.140625 L 4.265625 -2.75 L 4.515625 -2.421875 L 4.71875 -2.171875 L 5.078125 -1.9375 L 5.484375 -1.6875 L 5.78125 -1.546875 L 6.171875 -1.421875 L 6.625 -1.359375 L 7.296875 -1.421875 L 7.78125 -1.453125 L 8.140625 -1.484375 L 8.46875 -1.578125 L 8.8125 -1.609375 L 9.171875 -1.75 L 9.53125 -1.875 L 9.859375 -2.03125 L 10.203125 -2.203125 L 10.65625 -2.328125 L 10.921875 -2.609375 L 11.234375 -2.78125 L 11.5625 -3 L 11.828125 -3.265625 L 12.171875 -3.515625 L 12.5 -3.84375 L 12.71875 -4.140625 L 13.015625 -4.390625 L 13.28125 -4.6875 L 13.4375 -5.03125 L 13.703125 -5.421875 L 13.921875 -5.6875 L 14.140625 -6.015625 L 14.34375 -6.390625 L 14.5625 -6.78125 L 15.078125 -6.875 L 15.375 -6.65625 L 15.5625 -6.015625 L 15.375 -5.6875 L 15.125 -5.390625 L 14.953125 -5.046875 L 14.796875 -4.71875 L 14.5625 -4.421875 L 14.3125 -4.03125 L 14.140625 -3.71875 L 13.890625 -3.421875 L 13.6875 -3.09375 L 13.34375 -2.875 L 13.171875 -2.515625 L 12.796875 -2.296875 L 12.53125 -1.96875 L 11.984375 -1.421875 L 11.71875 -1.1875 L 11.375 -1 L 11.046875 -0.71875 L 10.75 -0.609375 L 10.40625 -0.359375 L 10.046875 -0.21875 L 9.6875 -0.03125 L 9.265625 0.09375 L 8.890625 0.1875 L 8.265625 0.390625 L 7.875 0.453125 L 7.390625 0.421875 L 7.078125 0.453125 Z M 3.9375 -6.453125 L 4.328125 -6.53125 L 5.171875 -6.59375 L 5.484375 -6.71875 L 5.9375 -6.78125 L 6.265625 -6.84375 L 6.71875 -6.9375 L 7.015625 -7.078125 L 7.421875 -7.234375 L 7.8125 -7.421875 L 8.140625 -7.625 L 8.4375 -7.78125 L 8.8125 -8.015625 L 9.140625 -8.328125 L 9.375 -8.5625 L 9.6875 -8.84375 L 9.84375 -9.203125 L 9.953125 -9.59375 L 10.140625 -9.921875 L 10.109375 -10.71875 L 9.984375 -11.109375 L 9.6875 -11.40625 L 9.46875 -11.65625 L 9.015625 -11.890625 L 8.65625 -11.921875 L 7.921875 -11.953125 L 7.078125 -11.796875 L 6.78125 -11.65625 L 6.484375 -11.46875 L 6.109375 -11.265625 L 5.75 -10.984375 L 5.484375 -10.6875 L 5.234375 -10.4375 L 5.03125 -10.109375 L 4.78125 -9.84375 L 4.546875 -9.46875 L 4.328125 -9.140625 L 4.140625 -8.71875 L 4.0625 -8.359375 L 3.9375 -8.046875 L 3.8125 -7.625 L 3.71875 -7.203125 L 3.65625 -6.8125 Z M 3.9375 -6.453125 "/></g></g></g><g fill="#000000" fill-opacity="1"><g transform="translate(84.060861, 31.546179)"><g><path d="M 5.359375 0.390625 L 5 0.328125 L 4.59375 0.296875 L 4.234375 0.1875 L 3.875 0.09375 L 3.484375 -0.03125 L 3.140625 -0.234375 L 2.75 -0.421875 L 2.484375 -0.609375 L 2.09375 -0.84375 L 1.75 -1.03125 L 1.6875 -1.578125 L 1.875 -1.875 L 2.125 -2.203125 L 2.359375 -2.546875 L 2.84375 -2.609375 L 3.234375 -2.359375 L 3.578125 -2.09375 L 3.90625 -1.90625 L 4.265625 -1.78125 L 5.359375 -1.453125 L 5.8125 -1.390625 L 6.53125 -1.390625 L 6.96875 -1.421875 L 7.296875 -1.484375 L 7.71875 -1.640625 L 8.046875 -1.78125 L 8.328125 -2.0625 L 8.59375 -2.296875 L 8.875 -2.640625 L 8.953125 -2.90625 L 9.046875 -3.328125 L 9.109375 -4.0625 L 8.890625 -4.484375 L 8.71875 -4.8125 L 8.4375 -5.046875 L 8.140625 -5.328125 L 7.875 -5.5625 L 7.5625 -5.8125 L 7.234375 -6.015625 L 6.90625 -6.171875 L 6.53125 -6.421875 L 6.140625 -6.59375 L 5.84375 -6.8125 L 5.484375 -7.078125 L 5.203125 -7.359375 L 4.875 -7.59375 L 4.65625 -7.875 L 4.453125 -8.171875 L 4.265625 -8.5 L 3.90625 -8.5 L 3.75 -8.171875 L 3.546875 -7.84375 L 3.359375 -7.5 L 3.234375 -7.171875 L 3 -6.84375 L 2.875 -6.5625 L 2.65625 -6.171875 L 2.515625 -5.875 L 1.9375 -5.8125 L 1.640625 -5.96875 L 1.453125 -6.5625 L 1.6875 -6.875 L 1.84375 -7.265625 L 2.09375 -7.59375 L 2.171875 -7.921875 L 2.421875 -8.328125 L 2.515625 -8.625 L 2.71875 -8.953125 L 2.875 -9.328125 L 3.125 -9.6875 L 3.265625 -10.109375 L 3.390625 -10.4375 L 3.609375 -10.75 L 3.71875 -11.171875 L 4.171875 -11.796875 L 4.328125 -12.203125 L 4.625 -12.4375 L 4.84375 -12.765625 L 5.171875 -13.015625 L 5.515625 -13.21875 L 5.78125 -13.40625 L 6.171875 -13.59375 L 6.5625 -13.6875 L 6.984375 -13.828125 L 7.328125 -13.859375 L 8.5625 -13.859375 L 8.953125 -13.890625 L 9.328125 -13.734375 L 9.75 -13.65625 L 10.078125 -13.5625 L 10.34375 -13.375 L 10.71875 -13.109375 L 10.953125 -12.921875 L 11.3125 -12.625 L 11.46875 -12.25 L 11.65625 -11.984375 L 11.765625 -11.59375 L 11.921875 -11.203125 L 12.015625 -10.859375 L 12.046875 -10.4375 L 11.5625 -10.109375 L 11.109375 -10.109375 L 10.71875 -10.078125 L 10.296875 -10.4375 L 10.203125 -10.859375 L 10.015625 -11.234375 L 9.78125 -11.53125 L 9.5625 -11.75 L 9.203125 -11.984375 L 8.8125 -12.140625 L 8.40625 -12.203125 L 7.6875 -12.203125 L 7.203125 -12.171875 L 6.875 -12.015625 L 6.5625 -11.828125 L 6.171875 -11.53125 L 6.015625 -11.203125 L 5.78125 -10.859375 L 5.65625 -10.46875 L 5.625 -9.75 L 5.8125 -9.375 L 6.015625 -9.015625 L 6.265625 -8.78125 L 6.453125 -8.4375 L 6.8125 -8.265625 L 7.140625 -8.015625 L 7.78125 -7.65625 L 8.109375 -7.390625 L 8.390625 -7.203125 L 8.71875 -7.015625 L 9.109375 -6.78125 L 9.359375 -6.53125 L 9.6875 -6.296875 L 9.984375 -6.078125 L 10.328125 -5.8125 L 10.5 -5.453125 L 10.71875 -5.171875 L 10.8125 -4.75 L 10.984375 -4.453125 L 11.046875 -4 L 10.984375 -3.265625 L 11.015625 -2.8125 L 10.921875 -2.421875 L 10.78125 -2.09375 L 10.59375 -1.71875 L 10.40625 -1.390625 L 10.171875 -1.125 L 9.859375 -0.8125 L 9.296875 -0.265625 L 8.875 -0.125 L 8.53125 0.0625 L 8.109375 0.21875 L 7.71875 0.265625 L 7.015625 0.421875 L 6.53125 0.484375 Z M 5.359375 0.390625 "/></g></g></g><g fill="#000000" fill-opacity="1"><g transform="translate(95.890126, 31.546179)"><g><path d="M 6.625 0.453125 L 6.234375 0.421875 L 5.90625 0.328125 L 5.484375 0.234375 L 4.6875 0.03125 L 4.359375 -0.1875 L 4.03125 -0.359375 L 3.6875 -0.609375 L 3.421875 -0.8125 L 3.125 -1.125 L 2.8125 -1.390625 L 2.609375 -1.75 L 2.390625 -2.03125 L 2.171875 -2.390625 L 2.125 -2.78125 L 1.90625 -3.140625 L 1.75 -3.546875 L 1.671875 -3.84375 L 1.640625 -4.265625 L 1.578125 -4.65625 L 1.578125 -5.046875 L 1.609375 -5.875 L 1.578125 -6.203125 L 1.671875 -6.65625 L 1.6875 -7.046875 L 1.75 -7.453125 L 1.8125 -7.78125 L 1.96875 -8.203125 L 2.0625 -8.5625 L 2.15625 -8.890625 L 2.390625 -9.296875 L 2.484375 -9.59375 L 2.65625 -9.984375 L 2.90625 -10.328125 L 3.0625 -10.6875 L 3.296875 -10.921875 L 3.578125 -11.28125 L 3.78125 -11.59375 L 4.078125 -11.859375 L 4.328125 -12.109375 L 4.65625 -12.375 L 5.171875 -12.890625 L 5.59375 -13.109375 L 5.90625 -13.28125 L 6.203125 -13.40625 L 6.59375 -13.625 L 6.984375 -13.65625 L 7.328125 -13.796875 L 7.6875 -13.890625 L 8.109375 -13.890625 L 8.875 -13.921875 L 9.328125 -13.859375 L 9.6875 -13.734375 L 10.171875 -13.625 L 10.5 -13.4375 L 10.78125 -13.21875 L 11.171875 -12.984375 L 11.4375 -12.734375 L 11.71875 -12.40625 L 11.828125 -12.046875 L 11.953125 -11.6875 L 12.046875 -11.265625 L 12.109375 -10.859375 L 12.109375 -9.625 L 11.59375 -9.234375 L 11.109375 -9.234375 L 10.75 -9.203125 L 10.296875 -9.6875 L 10.328125 -10.53125 L 10.171875 -10.890625 L 10.078125 -11.203125 L 9.78125 -11.53125 L 9.4375 -11.765625 L 9.078125 -11.921875 L 8.78125 -12.015625 L 7.5 -11.953125 L 7.203125 -11.828125 L 6.8125 -11.6875 L 6.484375 -11.46875 L 6.171875 -11.234375 L 5.84375 -11.046875 L 5.515625 -10.78125 L 5.203125 -10.40625 L 4.96875 -10.109375 L 4.8125 -9.8125 L 4.546875 -9.46875 L 4.390625 -9.109375 L 4.171875 -8.75 L 4 -8.328125 L 3.9375 -7.953125 L 3.78125 -7.625 L 3.75 -7.203125 L 3.6875 -6.78125 L 3.578125 -6.421875 L 3.546875 -5.96875 L 3.546875 -5.140625 L 3.609375 -4.75 L 3.625 -4.390625 L 3.78125 -4.0625 L 3.90625 -3.65625 L 4.078125 -3.296875 L 4.203125 -2.9375 L 4.546875 -2.609375 L 4.78125 -2.390625 L 5.046875 -2.0625 L 5.328125 -1.84375 L 5.6875 -1.671875 L 6.046875 -1.578125 L 6.453125 -1.484375 L 6.84375 -1.421875 L 7.6875 -1.390625 L 8.015625 -1.421875 L 8.40625 -1.453125 L 8.78125 -1.546875 L 9.109375 -1.671875 L 9.5 -1.6875 L 9.859375 -1.875 L 10.265625 -2.0625 L 10.59375 -2.171875 L 10.828125 -2.390625 L 11.203125 -2.578125 L 11.53125 -2.8125 L 11.765625 -3.0625 L 12.109375 -3.328125 L 12.375 -3.546875 L 12.65625 -3.8125 L 12.921875 -4.109375 L 13.203125 -4.453125 L 13.46875 -4.78125 L 13.65625 -5.078125 L 13.890625 -5.359375 L 14.109375 -5.75 L 14.34375 -6.015625 L 14.5 -6.453125 L 14.703125 -6.71875 L 15.21875 -6.90625 L 15.640625 -6.59375 L 15.734375 -6.078125 L 15.59375 -5.75 L 15.3125 -5.390625 L 15.125 -5.046875 L 14.890625 -4.65625 L 14.703125 -4.359375 L 14.40625 -4.0625 L 14.25 -3.71875 L 14.015625 -3.390625 L 13.703125 -3.0625 L 13.53125 -2.75 L 13.25 -2.484375 L 12.984375 -2.203125 L 12.65625 -1.9375 L 12.34375 -1.671875 L 12.140625 -1.359375 L 11.765625 -1.125 L 11.40625 -0.90625 L 11.140625 -0.671875 L 10.78125 -0.515625 L 10.5 -0.328125 L 10.078125 -0.15625 L 9.71875 0.03125 L 9.375 0.1875 L 9.015625 0.21875 L 8.5625 0.296875 L 8.203125 0.390625 L 7.875 0.453125 Z M 6.625 0.453125 "/></g></g></g><g fill="#000000" fill-opacity="1"><g transform="translate(108.959794, 31.546179)"><g><path d="M 19.03125 -13.5625 L 19.375 -13.375 L 19.515625 -12.859375 L 19.375 -12.46875 L 19.15625 -12.109375 L 18.96875 -11.828125 L 18.765625 -11.40625 L 18.578125 -11.078125 L 18.40625 -10.78125 L 18.09375 -10.40625 L 17.859375 -10.109375 L 17.578125 -9.84375 L 17.375 -9.53125 L 17.125 -9.265625 L 16.796875 -8.953125 L 16.46875 -8.6875 L 16.15625 -8.53125 L 15.828125 -8.265625 L 15.109375 -8.015625 L 14.671875 -7.90625 L 13.625 -7.84375 L 13.4375 -7.46875 L 13.25 -6.6875 L 13.28125 -6.328125 L 13.140625 -5.90625 L 13.046875 -5.515625 L 12.984375 -5.171875 L 12.828125 -4.78125 L 12.65625 -4.390625 L 12.53125 -4.078125 L 12.3125 -3.75 L 12.171875 -3.390625 L 11.921875 -3.03125 L 11.71875 -2.75 L 11.53125 -2.390625 L 11.28125 -2.09375 L 10.984375 -1.8125 L 10.65625 -1.546875 L 10.4375 -1.265625 L 10.171875 -1.03125 L 9.859375 -0.75 L 9.53125 -0.578125 L 9.109375 -0.328125 L 8.5 0.03125 L 8.140625 0.15625 L 7.75 0.265625 L 7.359375 0.328125 L 6.9375 0.453125 L 6.53125 0.421875 L 5.84375 0.421875 L 5.484375 0.453125 L 5.078125 0.328125 L 4.65625 0.21875 L 4.296875 0.125 L 4.03125 -0.03125 L 3.6875 -0.234375 L 3.359375 -0.484375 L 3.0625 -0.75 L 2.71875 -1.03125 L 2.515625 -1.296875 L 2.265625 -1.578125 L 2.15625 -1.90625 L 1.9375 -2.234375 L 1.78125 -2.640625 L 1.640625 -2.96875 L 1.640625 -3.421875 L 1.515625 -3.78125 L 1.484375 -4.109375 L 1.421875 -4.515625 L 1.390625 -5.296875 L 1.453125 -5.71875 L 1.546875 -6.046875 L 1.515625 -6.453125 L 1.578125 -6.875 L 1.671875 -7.203125 L 1.78125 -7.59375 L 1.90625 -8.015625 L 1.96875 -8.40625 L 2.15625 -8.71875 L 2.359375 -9.109375 L 2.421875 -9.46875 L 2.640625 -9.8125 L 2.875 -10.109375 L 3.03125 -10.4375 L 3.234375 -10.8125 L 3.484375 -11.078125 L 3.78125 -11.40625 L 4 -11.6875 L 4.296875 -11.953125 L 4.625 -12.234375 L 4.875 -12.5 L 5.203125 -12.734375 L 5.484375 -12.890625 L 5.875 -13.140625 L 6.234375 -13.28125 L 6.53125 -13.40625 L 6.90625 -13.59375 L 7.296875 -13.703125 L 7.625 -13.796875 L 8.046875 -13.890625 L 8.40625 -13.890625 L 9.203125 -13.921875 L 9.625 -13.828125 L 9.953125 -13.796875 L 10.328125 -13.625 L 10.71875 -13.46875 L 11.078125 -13.3125 L 11.34375 -13.109375 L 11.71875 -12.859375 L 12.015625 -12.59375 L 12.25 -12.28125 L 12.53125 -12.015625 L 12.71875 -11.71875 L 12.953125 -11.28125 L 13.078125 -10.953125 L 13.203125 -10.5625 L 13.25 -10.171875 L 13.3125 -9.8125 L 13.703125 -9.328125 L 14.53125 -9.328125 L 14.890625 -9.40625 L 15.28125 -9.46875 L 15.640625 -9.65625 L 15.890625 -9.890625 L 16.25 -10.109375 L 16.578125 -10.375 L 16.765625 -10.65625 L 17.015625 -10.984375 L 17.375 -11.28125 L 17.609375 -11.59375 L 17.796875 -11.953125 L 17.953125 -12.28125 L 18.15625 -12.59375 L 18.34375 -12.953125 L 18.609375 -13.375 Z M 6.71875 -1.390625 L 7.078125 -1.453125 L 7.46875 -1.640625 L 7.8125 -1.75 L 8.265625 -1.90625 L 8.59375 -2.125 L 8.890625 -2.359375 L 9.109375 -2.65625 L 9.40625 -2.90625 L 9.6875 -3.234375 L 9.890625 -3.484375 L 10.203125 -3.84375 L 10.40625 -4.140625 L 10.5625 -4.515625 L 10.6875 -4.875 L 10.859375 -5.265625 L 11.046875 -5.5625 L 11.140625 -5.96875 L 11.171875 -6.390625 L 11.265625 -6.78125 L 11.40625 -7.140625 L 11.46875 -7.5 L 11.5 -7.90625 L 11.40625 -8.6875 L 11.4375 -9.109375 L 11.34375 -9.53125 L 11.203125 -9.859375 L 11.109375 -10.296875 L 10.921875 -10.625 L 10.59375 -10.953125 L 10.40625 -11.234375 L 10.140625 -11.53125 L 9.6875 -11.75 L 9.40625 -11.859375 L 8.984375 -11.984375 L 8.234375 -11.953125 L 7.875 -11.953125 L 7.390625 -11.796875 L 7.078125 -11.6875 L 6.6875 -11.46875 L 6.390625 -11.3125 L 6.078125 -11.078125 L 5.75 -10.828125 L 5.453125 -10.53125 L 5.296875 -10.265625 L 5.03125 -10.015625 L 4.71875 -9.65625 L 4.59375 -9.296875 L 4.421875 -8.984375 L 4.203125 -8.65625 L 4.0625 -8.265625 L 3.90625 -7.921875 L 3.78125 -7.53125 L 3.625 -7.140625 L 3.546875 -6.78125 L 3.515625 -6.421875 L 3.484375 -6.015625 L 3.390625 -5.5625 L 3.484375 -4.84375 L 3.453125 -4.390625 L 3.609375 -4.078125 L 3.6875 -3.6875 L 3.8125 -3.296875 L 3.90625 -2.96875 L 4.078125 -2.640625 L 4.328125 -2.296875 L 4.625 -2.0625 L 5 -1.78125 L 5.296875 -1.640625 L 5.59375 -1.515625 L 6.015625 -1.453125 Z M 6.71875 -1.390625 "/></g></g></g><g clip-path="url(#0ff700b498)"><path fill="#ffe053" d="M 9.039062 22.738281 C 10.609375 19.964844 13.601562 14.894531 16.109375 11.324219 C 16.960938 11.226562 18.515625 10.464844 18.628906 9.613281 C 18.675781 9.296875 18.597656 9 17.933594 8.910156 C 20.257812 6.136719 21.863281 5.671875 25.285156 5.550781 C 28.996094 5.414062 34.84375 5.683594 38.035156 6.621094 C 41.230469 7.5625 41.769531 9.171875 42.261719 11.953125 C 42.746094 14.726562 43.183594 18.671875 43.0625 20.90625 C 42.941406 23.074219 42.300781 23.632812 36.863281 26.316406 C 35.828125 25.847656 34.109375 26.992188 34.515625 27.460938 C 28.34375 30.457031 18.710938 35.003906 13.507812 37.335938 C 7.757812 39.914062 7.421875 39.785156 7.300781 37.480469 C 7.183594 35.171875 7.289062 30.679688 7.292969 28.382812 C 7.296875 26.085938 7.203125 25.976562 9.039062 22.738281 Z M 9.039062 22.738281 " fill-opacity="1" fill-rule="evenodd"/></g><g clip-path="url(#8c71cf91d1)"><path fill="#ffce22" d="M 42.261719 11.953125 C 41.972656 10.324219 41.667969 9.09375 40.820312 8.167969 C 40.066406 8.222656 38.714844 8.621094 35.074219 10.34375 C 30.160156 12.667969 21.0625 17.414062 15.941406 20.171875 C 10.816406 22.929688 9.667969 23.703125 8.910156 24.375 C 8.164062 25.03125 7.785156 25.59375 7.417969 26.152344 C 7.273438 26.773438 7.292969 27.363281 7.292969 28.382812 C 7.289062 30.679688 7.183594 35.171875 7.304688 37.480469 C 7.421875 39.785156 7.757812 39.914062 13.507812 37.335938 C 18.710938 35.003906 28.34375 30.457031 34.515625 27.460938 C 34.109375 26.992188 35.828125 25.847656 36.863281 26.316406 C 42.300781 23.632812 42.941406 23.074219 43.0625 20.90625 C 43.183594 18.671875 42.746094 14.726562 42.261719 11.953125 Z M 42.261719 11.953125 " fill-opacity="1" fill-rule="evenodd"/></g><path fill="#fdbe19" d="M 33.800781 7.289062 C 34.925781 7.042969 35.695312 7.4375 35.523438 8.171875 C 35.355469 8.902344 34.304688 9.691406 33.183594 9.933594 C 32.0625 10.179688 31.292969 9.785156 31.460938 9.054688 C 31.632812 8.324219 32.679688 7.535156 33.800781 7.289062 Z M 33.800781 7.289062 " fill-opacity="1" fill-rule="evenodd"/><path fill="#ffce22" d="M 34.480469 9.398438 C 34.097656 9.640625 33.648438 9.832031 33.1875 9.933594 C 32.066406 10.179688 31.292969 9.785156 31.460938 9.054688 C 31.503906 8.875 31.597656 8.699219 31.730469 8.523438 C 32.109375 8.277344 32.558594 8.085938 33.019531 7.984375 C 34.144531 7.742188 34.914062 8.136719 34.742188 8.867188 C 34.703125 9.042969 34.609375 9.222656 34.480469 9.398438 Z M 34.480469 9.398438 " fill-opacity="1" fill-rule="evenodd"/><path fill="#fefefe" d="M 34.894531 9.089844 C 34.445312 9.519531 33.777344 9.878906 33.082031 10.03125 C 31.957031 10.277344 31.1875 9.882812 31.359375 9.152344 C 31.429688 8.839844 31.660156 8.515625 31.988281 8.230469 C 31.71875 8.492188 31.527344 8.78125 31.460938 9.054688 C 31.292969 9.785156 32.0625 10.179688 33.183594 9.9375 C 33.832031 9.796875 34.449219 9.472656 34.894531 9.089844 Z M 34.894531 9.089844 " fill-opacity="1" fill-rule="evenodd"/><path fill="#fdbe19" d="M 22.796875 8.035156 C 23.425781 7.894531 23.898438 8.121094 23.847656 8.542969 C 23.804688 8.960938 23.253906 9.414062 22.625 9.554688 C 21.996094 9.695312 21.527344 9.46875 21.570312 9.046875 C 21.621094 8.628906 22.171875 8.175781 22.796875 8.035156 Z M 22.796875 8.035156 " fill-opacity="1" fill-rule="evenodd"/><path fill="#ffce22" d="M 23.332031 9.246094 C 23.128906 9.386719 22.882812 9.5 22.625 9.554688 C 21.996094 9.695312 21.527344 9.46875 21.570312 9.050781 C 21.585938 8.949219 21.628906 8.847656 21.6875 8.746094 C 21.894531 8.605469 22.136719 8.492188 22.394531 8.433594 C 23.023438 8.296875 23.492188 8.523438 23.445312 8.941406 C 23.433594 9.042969 23.394531 9.148438 23.332031 9.246094 Z M 23.332031 9.246094 " fill-opacity="1" fill-rule="evenodd"/><path fill="#fefefe" d="M 23.546875 9.070312 C 23.320312 9.316406 22.960938 9.523438 22.570312 9.609375 C 21.941406 9.75 21.472656 9.523438 21.519531 9.101562 C 21.539062 8.925781 21.652344 8.738281 21.820312 8.574219 C 21.679688 8.726562 21.589844 8.890625 21.570312 9.046875 C 21.527344 9.46875 21.996094 9.695312 22.625 9.554688 C 22.984375 9.472656 23.320312 9.292969 23.546875 9.070312 Z M 23.546875 9.070312 " fill-opacity="1" fill-rule="evenodd"/><path fill="#fdbe19" d="M 18.066406 16.160156 C 18.695312 16.019531 19.164062 16.246094 19.117188 16.667969 C 19.066406 17.085938 18.519531 17.542969 17.890625 17.683594 C 17.261719 17.820312 16.792969 17.59375 16.839844 17.175781 C 16.890625 16.757812 17.4375 16.300781 18.066406 16.160156 Z M 18.066406 16.160156 " fill-opacity="1" fill-rule="evenodd"/><path fill="#ffce22" d="M 18.597656 17.371094 C 18.394531 17.511719 18.148438 17.625 17.890625 17.683594 C 17.261719 17.824219 16.792969 17.597656 16.839844 17.175781 C 16.851562 17.074219 16.894531 16.972656 16.957031 16.871094 C 17.15625 16.730469 17.402344 16.621094 17.664062 16.5625 C 18.292969 16.421875 18.761719 16.648438 18.714844 17.070312 C 18.703125 17.171875 18.660156 17.273438 18.597656 17.371094 Z M 18.597656 17.371094 " fill-opacity="1" fill-rule="evenodd"/><path fill="#fefefe" d="M 18.816406 17.195312 C 18.589844 17.441406 18.230469 17.648438 17.839844 17.738281 C 17.210938 17.875 16.738281 17.648438 16.785156 17.234375 C 16.808594 17.054688 16.917969 16.867188 17.089844 16.703125 C 16.949219 16.851562 16.859375 17.015625 16.839844 17.175781 C 16.796875 17.59375 17.261719 17.820312 17.894531 17.679688 C 18.25 17.601562 18.585938 17.417969 18.816406 17.195312 Z M 18.816406 17.195312 " fill-opacity="1" fill-rule="evenodd"/><path fill="#ffce22" d="M 17.933594 8.910156 C 17.941406 9.242188 17.949219 9.574219 17.882812 9.9375 C 17.824219 10.230469 17.71875 10.535156 17.582031 10.789062 C 18.121094 10.476562 18.570312 10.058594 18.628906 9.613281 C 18.675781 9.296875 18.597656 9 17.933594 8.910156 Z M 17.933594 8.910156 " fill-opacity="1" fill-rule="evenodd"/><path fill="#fdbe19" d="M 25.980469 11.945312 C 26.285156 11.878906 26.511719 11.988281 26.488281 12.1875 C 26.464844 12.390625 26.199219 12.609375 25.894531 12.679688 C 25.59375 12.75 25.367188 12.636719 25.386719 12.433594 C 25.410156 12.230469 25.675781 12.011719 25.980469 11.945312 Z M 25.980469 11.945312 " fill-opacity="1" fill-rule="evenodd"/><path fill="#ffce22" d="M 26.234375 12.527344 C 26.136719 12.597656 26.019531 12.652344 25.894531 12.679688 C 25.589844 12.746094 25.363281 12.636719 25.386719 12.433594 C 25.390625 12.386719 25.410156 12.332031 25.441406 12.285156 C 25.539062 12.21875 25.660156 12.164062 25.78125 12.136719 C 26.085938 12.070312 26.316406 12.175781 26.292969 12.378906 C 26.285156 12.429688 26.265625 12.480469 26.234375 12.527344 Z M 26.234375 12.527344 " fill-opacity="1" fill-rule="evenodd"/><path fill="#fefefe" d="M 26.339844 12.445312 C 26.230469 12.5625 26.058594 12.664062 25.871094 12.707031 C 25.566406 12.773438 25.339844 12.664062 25.363281 12.460938 C 25.371094 12.375 25.421875 12.285156 25.507812 12.203125 C 25.441406 12.277344 25.394531 12.359375 25.386719 12.433594 C 25.363281 12.636719 25.59375 12.746094 25.894531 12.679688 C 26.070312 12.640625 26.230469 12.550781 26.339844 12.445312 Z M 26.339844 12.445312 " fill-opacity="1" fill-rule="evenodd"/><path fill="#fdbe19" d="M 19.285156 12.894531 C 19.589844 12.824219 19.816406 12.933594 19.792969 13.136719 C 19.769531 13.339844 19.503906 13.5625 19.203125 13.628906 C 18.898438 13.695312 18.671875 13.585938 18.695312 13.386719 C 18.71875 13.183594 18.980469 12.960938 19.285156 12.894531 Z M 19.285156 12.894531 " fill-opacity="1" fill-rule="evenodd"/><path fill="#ffce22" d="M 19.542969 13.480469 C 19.445312 13.546875 19.328125 13.601562 19.203125 13.628906 C 18.898438 13.695312 18.671875 13.585938 18.695312 13.382812 C 18.699219 13.335938 18.71875 13.285156 18.75 13.234375 C 18.847656 13.167969 18.964844 13.113281 19.089844 13.089844 C 19.394531 13.019531 19.621094 13.128906 19.597656 13.332031 C 19.59375 13.382812 19.574219 13.429688 19.542969 13.480469 Z M 19.542969 13.480469 " fill-opacity="1" fill-rule="evenodd"/><path fill="#fefefe" d="M 19.648438 13.394531 C 19.539062 13.511719 19.363281 13.613281 19.175781 13.65625 C 18.871094 13.722656 18.644531 13.613281 18.667969 13.410156 C 18.675781 13.324219 18.730469 13.234375 18.8125 13.15625 C 18.746094 13.226562 18.703125 13.304688 18.695312 13.382812 C 18.671875 13.585938 18.898438 13.695312 19.203125 13.628906 C 19.375 13.589844 19.539062 13.5 19.648438 13.394531 Z M 19.648438 13.394531 " fill-opacity="1" fill-rule="evenodd"/><path fill="#fdbe19" d="M 11.964844 19.890625 C 12.265625 19.824219 12.492188 19.933594 12.472656 20.136719 C 12.449219 20.339844 12.183594 20.558594 11.878906 20.625 C 11.574219 20.691406 11.347656 20.585938 11.367188 20.382812 C 11.394531 20.175781 11.660156 19.960938 11.964844 19.890625 Z M 11.964844 19.890625 " fill-opacity="1" fill-rule="evenodd"/><path fill="#ffce22" d="M 12.21875 20.476562 C 12.121094 20.542969 12.003906 20.597656 11.878906 20.625 C 11.574219 20.691406 11.347656 20.582031 11.367188 20.378906 C 11.375 20.332031 11.394531 20.28125 11.425781 20.234375 C 11.523438 20.164062 11.640625 20.113281 11.765625 20.085938 C 12.070312 20.019531 12.296875 20.125 12.273438 20.328125 C 12.269531 20.378906 12.25 20.429688 12.21875 20.476562 Z M 12.21875 20.476562 " fill-opacity="1" fill-rule="evenodd"/><path fill="#fefefe" d="M 12.324219 20.390625 C 12.214844 20.511719 12.039062 20.609375 11.851562 20.652344 C 11.546875 20.71875 11.320312 20.609375 11.34375 20.40625 C 11.355469 20.320312 11.410156 20.230469 11.492188 20.152344 C 11.425781 20.222656 11.378906 20.304688 11.367188 20.378906 C 11.34375 20.582031 11.574219 20.691406 11.878906 20.625 C 12.054688 20.585938 12.214844 20.496094 12.324219 20.390625 Z M 12.324219 20.390625 " fill-opacity="1" fill-rule="evenodd"/><path fill="#fdbe19" d="M 28.246094 7.269531 C 28.703125 7.167969 29.046875 7.332031 29.011719 7.640625 C 28.976562 7.949219 28.574219 8.28125 28.117188 8.382812 C 27.65625 8.484375 27.3125 8.320312 27.347656 8.011719 C 27.382812 7.703125 27.78125 7.371094 28.246094 7.269531 Z M 28.246094 7.269531 " fill-opacity="1" fill-rule="evenodd"/><path fill="#ffce22" d="M 28.632812 8.15625 C 28.484375 8.257812 28.304688 8.339844 28.117188 8.378906 C 27.65625 8.484375 27.3125 8.316406 27.347656 8.011719 C 27.355469 7.9375 27.386719 7.863281 27.433594 7.785156 C 27.582031 7.683594 27.761719 7.605469 27.949219 7.558594 C 28.410156 7.457031 28.753906 7.625 28.71875 7.929688 C 28.710938 8.007812 28.679688 8.082031 28.632812 8.15625 Z M 28.632812 8.15625 " fill-opacity="1" fill-rule="evenodd"/><path fill="#fefefe" d="M 28.792969 8.027344 C 28.625 8.207031 28.363281 8.355469 28.078125 8.421875 C 27.617188 8.523438 27.273438 8.359375 27.308594 8.050781 C 27.324219 7.917969 27.40625 7.785156 27.53125 7.664062 C 27.429688 7.773438 27.363281 7.894531 27.347656 8.011719 C 27.3125 8.316406 27.65625 8.484375 28.117188 8.378906 C 28.382812 8.324219 28.625 8.1875 28.792969 8.027344 Z M 28.792969 8.027344 " fill-opacity="1" fill-rule="evenodd"/><path fill="#fbaf17" d="M 38.351562 12.988281 C 39.25 12.871094 39.871094 13.355469 39.734375 14.0625 C 39.597656 14.777344 38.757812 15.445312 37.859375 15.566406 C 36.960938 15.683594 36.339844 15.199219 36.476562 14.488281 C 36.613281 13.777344 37.453125 13.105469 38.351562 12.988281 Z M 38.351562 12.988281 " fill-opacity="1" fill-rule="evenodd"/><path fill="#fdbe19" d="M 38.894531 15.175781 C 38.589844 15.375 38.230469 15.515625 37.859375 15.566406 C 36.960938 15.683594 36.34375 15.199219 36.476562 14.488281 C 36.511719 14.316406 36.585938 14.148438 36.691406 13.988281 C 36.996094 13.789062 37.355469 13.644531 37.726562 13.597656 C 38.625 13.480469 39.242188 13.960938 39.105469 14.671875 C 39.074219 14.847656 39 15.015625 38.894531 15.175781 Z M 38.894531 15.175781 " fill-opacity="1" fill-rule="evenodd"/><path fill="#fefefe" d="M 39.230469 14.910156 C 38.871094 15.292969 38.335938 15.578125 37.777344 15.648438 C 36.878906 15.765625 36.257812 15.285156 36.394531 14.574219 C 36.453125 14.269531 36.640625 13.976562 36.902344 13.726562 C 36.683594 13.957031 36.53125 14.21875 36.480469 14.492188 C 36.34375 15.199219 36.964844 15.683594 37.863281 15.566406 C 38.375 15.5 38.875 15.246094 39.230469 14.910156 Z M 39.230469 14.910156 " fill-opacity="1" fill-rule="evenodd"/><path fill="#fbaf17" d="M 27.546875 17.4375 C 28.445312 17.320312 29.066406 17.800781 28.929688 18.511719 C 28.792969 19.222656 27.953125 19.894531 27.054688 20.011719 C 26.15625 20.128906 25.535156 19.648438 25.675781 18.933594 C 25.808594 18.222656 26.648438 17.550781 27.546875 17.4375 Z M 27.546875 17.4375 " fill-opacity="1" fill-rule="evenodd"/><path fill="#fdbe19" d="M 28.089844 19.617188 C 27.785156 19.816406 27.425781 19.960938 27.054688 20.011719 C 26.15625 20.125 25.539062 19.648438 25.675781 18.933594 C 25.707031 18.761719 25.78125 18.59375 25.890625 18.429688 C 26.191406 18.230469 26.550781 18.089844 26.921875 18.039062 C 27.820312 17.925781 28.441406 18.40625 28.304688 19.117188 C 28.269531 19.292969 28.195312 19.460938 28.089844 19.617188 Z M 28.089844 19.617188 " fill-opacity="1" fill-rule="evenodd"/><path fill="#fefefe" d="M 28.421875 19.359375 C 28.066406 19.734375 27.527344 20.023438 26.96875 20.09375 C 26.070312 20.210938 25.453125 19.730469 25.589844 19.015625 C 25.648438 18.714844 25.832031 18.417969 26.097656 18.171875 C 25.878906 18.402344 25.726562 18.664062 25.675781 18.933594 C 25.539062 19.648438 26.15625 20.128906 27.054688 20.011719 C 27.570312 19.941406 28.066406 19.695312 28.421875 19.359375 Z M 28.421875 19.359375 " fill-opacity="1" fill-rule="evenodd"/><path fill="#fbaf17" d="M 17.84375 30.242188 C 18.742188 30.128906 19.359375 30.605469 19.226562 31.320312 C 19.089844 32.03125 18.25 32.703125 17.351562 32.820312 C 16.453125 32.9375 15.832031 32.453125 15.972656 31.742188 C 16.105469 31.03125 16.945312 30.359375 17.84375 30.242188 Z M 17.84375 30.242188 " fill-opacity="1" fill-rule="evenodd"/><path fill="#fdbe19" d="M 18.386719 32.429688 C 18.078125 32.628906 17.71875 32.769531 17.351562 32.820312 C 16.453125 32.9375 15.832031 32.453125 15.972656 31.742188 C 16.003906 31.570312 16.078125 31.402344 16.183594 31.242188 C 16.488281 31.042969 16.84375 30.898438 17.21875 30.851562 C 18.117188 30.734375 18.734375 31.214844 18.601562 31.925781 C 18.5625 32.101562 18.492188 32.269531 18.386719 32.429688 Z M 18.386719 32.429688 " fill-opacity="1" fill-rule="evenodd"/><path fill="#fefefe" d="M 18.71875 32.167969 C 18.359375 32.542969 17.824219 32.832031 17.265625 32.902344 C 16.367188 33.019531 15.75 32.539062 15.882812 31.824219 C 15.945312 31.523438 16.128906 31.226562 16.394531 30.980469 C 16.175781 31.210938 16.023438 31.472656 15.972656 31.742188 C 15.835938 32.453125 16.453125 32.9375 17.351562 32.820312 C 17.867188 32.753906 18.363281 32.503906 18.71875 32.167969 Z M 18.71875 32.167969 " fill-opacity="1" fill-rule="evenodd"/><path fill="#fbaf17" d="M 20.738281 23.714844 C 21.300781 23.640625 21.683594 23.941406 21.601562 24.390625 C 21.515625 24.832031 20.992188 25.253906 20.429688 25.324219 C 19.871094 25.398438 19.480469 25.097656 19.566406 24.65625 C 19.652344 24.210938 20.175781 23.792969 20.738281 23.714844 Z M 20.738281 23.714844 " fill-opacity="1" fill-rule="evenodd"/><path fill="#fdbe19" d="M 21.078125 25.082031 C 20.886719 25.207031 20.660156 25.296875 20.429688 25.324219 C 19.871094 25.398438 19.480469 25.097656 19.566406 24.65625 C 19.585938 24.546875 19.632812 24.441406 19.699219 24.34375 C 19.890625 24.214844 20.117188 24.125 20.347656 24.097656 C 20.910156 24.023438 21.292969 24.324219 21.210938 24.769531 C 21.1875 24.875 21.140625 24.980469 21.078125 25.082031 Z M 21.078125 25.082031 " fill-opacity="1" fill-rule="evenodd"/><path fill="#fefefe" d="M 21.285156 24.917969 C 21.058594 25.152344 20.726562 25.332031 20.378906 25.378906 C 19.816406 25.453125 19.429688 25.152344 19.515625 24.707031 C 19.550781 24.515625 19.667969 24.332031 19.832031 24.175781 C 19.695312 24.320312 19.601562 24.484375 19.566406 24.65625 C 19.480469 25.097656 19.871094 25.398438 20.429688 25.324219 C 20.753906 25.285156 21.0625 25.128906 21.285156 24.917969 Z M 21.285156 24.917969 " fill-opacity="1" fill-rule="evenodd"/><path fill="#fbaf17" d="M 31.515625 25.789062 C 32.078125 25.714844 32.464844 26.015625 32.378906 26.457031 C 32.292969 26.902344 31.769531 27.324219 31.207031 27.394531 C 30.648438 27.46875 30.261719 27.167969 30.34375 26.722656 C 30.429688 26.28125 30.953125 25.859375 31.515625 25.789062 Z M 31.515625 25.789062 " fill-opacity="1" fill-rule="evenodd"/><path fill="#fdbe19" d="M 31.855469 27.152344 C 31.664062 27.277344 31.4375 27.367188 31.207031 27.398438 C 30.644531 27.46875 30.257812 27.167969 30.34375 26.722656 C 30.363281 26.617188 30.410156 26.511719 30.476562 26.414062 C 30.667969 26.285156 30.894531 26.199219 31.125 26.167969 C 31.683594 26.09375 32.070312 26.394531 31.984375 26.839844 C 31.964844 26.949219 31.917969 27.050781 31.855469 27.152344 Z M 31.855469 27.152344 " fill-opacity="1" fill-rule="evenodd"/><path fill="#fefefe" d="M 32.0625 26.988281 C 31.839844 27.226562 31.503906 27.402344 31.15625 27.449219 C 30.59375 27.523438 30.207031 27.222656 30.292969 26.777344 C 30.328125 26.589844 30.445312 26.40625 30.609375 26.25 C 30.472656 26.390625 30.378906 26.558594 30.34375 26.722656 C 30.257812 27.167969 30.648438 27.46875 31.207031 27.398438 C 31.53125 27.355469 31.839844 27.199219 32.0625 26.988281 Z M 32.0625 26.988281 " fill-opacity="1" fill-rule="evenodd"/><path fill="#fbaf17" d="M 33.160156 20.527344 C 33.71875 20.457031 34.105469 20.757812 34.023438 21.203125 C 33.9375 21.644531 33.414062 22.066406 32.851562 22.140625 C 32.289062 22.210938 31.90625 21.910156 31.988281 21.46875 C 32.074219 21.023438 32.597656 20.601562 33.160156 20.527344 Z M 33.160156 20.527344 " fill-opacity="1" fill-rule="evenodd"/><path fill="#fdbe19" d="M 33.496094 21.894531 C 33.308594 22.019531 33.082031 22.105469 32.851562 22.136719 C 32.289062 22.210938 31.90625 21.910156 31.988281 21.46875 C 32.011719 21.359375 32.054688 21.253906 32.121094 21.152344 C 32.3125 21.027344 32.535156 20.9375 32.769531 20.90625 C 33.328125 20.835938 33.714844 21.136719 33.632812 21.582031 C 33.609375 21.6875 33.5625 21.796875 33.496094 21.894531 Z M 33.496094 21.894531 " fill-opacity="1" fill-rule="evenodd"/><path fill="#fefefe" d="M 33.707031 21.730469 C 33.480469 21.964844 33.144531 22.144531 32.800781 22.191406 C 32.238281 22.261719 31.851562 21.964844 31.9375 21.519531 C 31.972656 21.328125 32.085938 21.144531 32.253906 20.988281 C 32.117188 21.132812 32.019531 21.296875 31.988281 21.46875 C 31.902344 21.910156 32.289062 22.210938 32.851562 22.136719 C 33.171875 22.097656 33.484375 21.941406 33.707031 21.730469 Z M 33.707031 21.730469 " fill-opacity="1" fill-rule="evenodd"/><path fill="#fbaf17" d="M 39.054688 20.433594 C 39.535156 20.371094 39.867188 20.628906 39.792969 21.007812 C 39.71875 21.386719 39.273438 21.746094 38.789062 21.808594 C 38.3125 21.871094 37.980469 21.613281 38.050781 21.234375 C 38.125 20.855469 38.574219 20.496094 39.054688 20.433594 Z M 39.054688 20.433594 " fill-opacity="1" fill-rule="evenodd"/><path fill="#fdbe19" d="M 39.34375 21.601562 C 39.179688 21.707031 38.988281 21.785156 38.789062 21.808594 C 38.3125 21.871094 37.980469 21.613281 38.050781 21.234375 C 38.070312 21.140625 38.109375 21.050781 38.167969 20.964844 C 38.332031 20.859375 38.523438 20.78125 38.722656 20.757812 C 39.199219 20.695312 39.53125 20.953125 39.460938 21.332031 C 39.441406 21.425781 39.402344 21.515625 39.34375 21.601562 Z M 39.34375 21.601562 " fill-opacity="1" fill-rule="evenodd"/><path fill="#fefefe" d="M 39.523438 21.460938 C 39.332031 21.664062 39.042969 21.816406 38.746094 21.855469 C 38.265625 21.917969 37.933594 21.660156 38.007812 21.28125 C 38.039062 21.117188 38.136719 20.957031 38.277344 20.824219 C 38.160156 20.949219 38.078125 21.089844 38.050781 21.234375 C 37.976562 21.617188 38.308594 21.875 38.789062 21.8125 C 39.070312 21.773438 39.332031 21.636719 39.523438 21.460938 Z M 39.523438 21.460938 " fill-opacity="1" fill-rule="evenodd"/><path fill="#fbaf17" d="M 11.640625 26.808594 C 12.015625 26.757812 12.273438 26.957031 12.214844 27.253906 C 12.160156 27.550781 11.808594 27.828125 11.4375 27.878906 C 11.0625 27.925781 10.804688 27.726562 10.863281 27.429688 C 10.917969 27.132812 11.269531 26.855469 11.640625 26.808594 Z M 11.640625 26.808594 " fill-opacity="1" fill-rule="evenodd"/><path fill="#fdbe19" d="M 11.867188 27.714844 C 11.742188 27.796875 11.59375 27.855469 11.4375 27.878906 C 11.066406 27.925781 10.808594 27.726562 10.867188 27.429688 C 10.878906 27.359375 10.910156 27.289062 10.953125 27.222656 C 11.078125 27.140625 11.226562 27.078125 11.382812 27.058594 C 11.753906 27.011719 12.011719 27.210938 11.953125 27.507812 C 11.941406 27.578125 11.910156 27.648438 11.867188 27.714844 Z M 11.867188 27.714844 " fill-opacity="1" fill-rule="evenodd"/><path fill="#fefefe" d="M 12.007812 27.609375 C 11.855469 27.765625 11.632812 27.882812 11.402344 27.910156 C 11.027344 27.960938 10.773438 27.761719 10.828125 27.464844 C 10.851562 27.339844 10.929688 27.21875 11.039062 27.113281 C 10.945312 27.210938 10.886719 27.320312 10.863281 27.433594 C 10.808594 27.730469 11.0625 27.929688 11.4375 27.878906 C 11.652344 27.847656 11.859375 27.746094 12.007812 27.609375 Z M 12.007812 27.609375 " fill-opacity="1" fill-rule="evenodd"/><path fill="#fbaf17" d="M 11.925781 34.039062 C 12.296875 33.988281 12.554688 34.191406 12.5 34.488281 C 12.441406 34.78125 12.09375 35.0625 11.71875 35.109375 C 11.347656 35.15625 11.089844 34.957031 11.144531 34.660156 C 11.203125 34.367188 11.550781 34.085938 11.925781 34.039062 Z M 11.925781 34.039062 " fill-opacity="1" fill-rule="evenodd"/><path fill="#fdbe19" d="M 12.148438 34.945312 C 12.023438 35.027344 11.871094 35.089844 11.71875 35.105469 C 11.347656 35.15625 11.089844 34.957031 11.144531 34.660156 C 11.15625 34.589844 11.1875 34.519531 11.234375 34.453125 C 11.359375 34.367188 11.511719 34.3125 11.660156 34.292969 C 12.039062 34.242188 12.292969 34.441406 12.238281 34.738281 C 12.226562 34.808594 12.195312 34.878906 12.148438 34.945312 Z M 12.148438 34.945312 " fill-opacity="1" fill-rule="evenodd"/><path fill="#fefefe" d="M 12.285156 34.835938 C 12.140625 34.992188 11.917969 35.113281 11.683594 35.144531 C 11.3125 35.191406 11.054688 34.992188 11.113281 34.695312 C 11.136719 34.570312 11.214844 34.449219 11.320312 34.34375 C 11.230469 34.441406 11.164062 34.550781 11.144531 34.660156 C 11.089844 34.957031 11.347656 35.15625 11.71875 35.109375 C 11.933594 35.082031 12.136719 34.976562 12.285156 34.835938 Z M 12.285156 34.835938 " fill-opacity="1" fill-rule="evenodd"/><path fill="#fbaf17" d="M 36.328125 25.410156 C 36.964844 25.328125 37.457031 25.542969 37.648438 25.925781 C 37.398438 26.050781 37.136719 26.179688 36.863281 26.316406 C 35.941406 25.902344 34.484375 26.757812 34.457031 27.285156 C 34.433594 27.167969 34.433594 27.046875 34.457031 26.914062 C 34.589844 26.199219 35.429688 25.527344 36.328125 25.410156 Z M 36.328125 25.410156 " fill-opacity="1" fill-rule="evenodd"/><path fill="#fefefe" d="M 34.417969 27.507812 C 34.355469 27.355469 34.335938 27.183594 34.375 26.992188 C 34.433594 26.6875 34.617188 26.394531 34.882812 26.148438 C 34.664062 26.375 34.511719 26.640625 34.460938 26.910156 C 34.421875 27.117188 34.445312 27.304688 34.519531 27.464844 Z M 34.417969 27.507812 " fill-opacity="1" fill-rule="evenodd"/></svg>