<svg xmlns="http://www.w3.org/2000/svg" xmlns:xlink="http://www.w3.org/1999/xlink" width="180" zoomAndPan="magnify" viewBox="0 0 135 44.999999" height="60" preserveAspectRatio="xMidYMid meet" version="1.0"><defs><g/><clipPath id="890d9fdfc4"><path d="M 4.5 8 L 42.75 8 L 42.75 32.25 L 4.5 32.25 Z M 4.5 8 " clip-rule="nonzero"/></clipPath><clipPath id="47cb983335"><path d="M 4.5 4.5 L 42.75 4.5 L 42.75 22 L 4.5 22 Z M 4.5 4.5 " clip-rule="nonzero"/></clipPath></defs><g fill="#000000" fill-opacity="1"><g transform="translate(44.730853, 30.1054)"><g><path d="M 17.671875 -19.3125 L 17.3125 -19.25 L 16.890625 -19.3125 L 16.53125 -19.25 L 15.671875 -19.3125 L 15.28125 -19.28125 L 14.859375 -19.3125 L 14.53125 -19.3125 L 14.078125 -19.25 L 12.859375 -19.25 L 12.53125 -19.3125 L 12.140625 -19.25 L 11.265625 -19.3125 L 10.890625 -19.28125 L 10.4375 -19.25 L 10.140625 -19.3125 L 9.234375 -19.3125 L 8.71875 -18.921875 L 8.71875 -18.515625 L 8.53125 -18.15625 L 8.40625 -17.734375 L 8.328125 -17.40625 L 8.203125 -17.046875 L 8.109375 -16.640625 L 7.921875 -16.28125 L 7.90625 -15.890625 L 7.75 -15.5625 L 7.6875 -15.1875 L 7.53125 -14.765625 L 7.46875 -14.40625 L 7.296875 -14.078125 L 7.171875 -13.65625 L 7.140625 -13.34375 L 7.015625 -12.984375 L 6.90625 -12.5625 L 6.6875 -12.171875 L 6.65625 -11.796875 L 6.9375 -11.5 L 7.296875 -11.5 L 7.65625 -11.4375 L 8.078125 -11.4375 L 8.40625 -11.5 L 8.875 -11.4375 L 9.265625 -11.5 L 9.625 -11.46875 L 9.984375 -11.5 L 10.40625 -11.4375 L 10.75 -11.46875 L 11.140625 -11.5 L 11.890625 -11.5 L 12.34375 -11.46875 L 12.734375 -11.5 L 13.46875 -11.5 L 13.828125 -11.46875 L 14.1875 -11.5 L 14.59375 -11.46875 L 14.890625 -11.109375 L 14.828125 -10.65625 L 14.703125 -10.328125 L 14.53125 -9.859375 L 14.078125 -9.53125 L 13.65625 -9.5625 L 12.828125 -9.5625 L 12.4375 -9.5 L 11.75 -9.5 L 11.28125 -9.5625 L 10.953125 -9.53125 L 10.625 -9.53125 L 10.203125 -9.5 L 9.84375 -9.53125 L 9.4375 -9.5625 L 9.078125 -9.5 L 8.625 -9.5625 L 8.265625 -9.53125 L 7.078125 -9.53125 L 6.75 -9.5625 L 6.328125 -9.5625 L 5.8125 -9.140625 L 5.65625 -8.75 L 5.65625 -8.359375 L 5.515625 -7.953125 L 5.421875 -7.65625 L 5.203125 -7.234375 L 5.109375 -6.875 L 5.03125 -6.5 L 4.875 -6.078125 L 4.8125 -5.71875 L 4.65625 -5.359375 L 4.59375 -4.9375 L 4.484375 -4.59375 L 4.390625 -4.140625 L 4.203125 -3.84375 L 4.109375 -3.453125 L 3.96875 -3 L 3.90625 -2.65625 L 3.71875 -2.234375 L 3.609375 -1.875 L 3.515625 -1.546875 L 3.453125 -1.15625 L 3.359375 -0.78125 L 3.203125 -0.328125 L 2.609375 0.03125 L 2.265625 -0.03125 L 1.71875 0.0625 L 1.390625 -0.03125 L 1.03125 -0.359375 L 1.203125 -0.71875 L 1.203125 -1.09375 L 1.421875 -1.515625 L 1.453125 -1.875 L 1.640625 -2.234375 L 1.75 -2.640625 L 1.875 -3 L 1.9375 -3.421875 L 2.09375 -3.78125 L 2.203125 -4.171875 L 2.296875 -4.515625 L 2.421875 -4.90625 L 2.578125 -5.296875 L 2.6875 -5.6875 L 2.71875 -6.015625 L 2.84375 -6.421875 L 2.9375 -6.78125 L 3.09375 -7.203125 L 3.140625 -7.5625 L 3.359375 -7.921875 L 3.421875 -8.296875 L 3.578125 -8.65625 L 3.65625 -9.046875 L 3.75 -9.40625 L 3.90625 -9.8125 L 4 -10.171875 L 4.171875 -10.5625 L 4.171875 -10.921875 L 4.359375 -11.34375 L 4.453125 -11.75 L 4.59375 -12.140625 L 4.65625 -12.46875 L 4.78125 -12.859375 L 4.9375 -13.21875 L 5.046875 -13.65625 L 5.171875 -13.984375 L 5.203125 -14.34375 L 5.390625 -14.734375 L 5.515625 -15.15625 L 5.5625 -15.5 L 5.71875 -15.921875 L 5.875 -16.28125 L 5.9375 -16.609375 L 6.015625 -17.015625 L 6.203125 -17.375 L 6.296875 -17.796875 L 6.390625 -18.125 L 6.484375 -18.515625 L 6.65625 -18.921875 L 6.78125 -19.25 L 6.8125 -19.640625 L 7.015625 -20.03125 L 7.015625 -20.40625 L 7.203125 -20.828125 L 7.71875 -21.1875 L 8.140625 -21.15625 L 8.46875 -21.1875 L 10.8125 -21.1875 L 11.203125 -21.21875 L 11.625 -21.15625 L 11.984375 -21.21875 L 12.40625 -21.1875 L 13.984375 -21.1875 L 14.375 -21.15625 L 14.703125 -21.15625 L 15.15625 -21.1875 L 15.53125 -21.15625 L 16.375 -21.15625 L 16.734375 -21.21875 L 17.0625 -21.1875 L 17.546875 -21.15625 L 17.859375 -21.21875 L 18.34375 -21.21875 L 18.515625 -20.828125 L 18.4375 -20.421875 L 18.28125 -20 L 18.15625 -19.671875 Z M 17.671875 -19.3125 "/></g></g></g><g fill="#000000" fill-opacity="1"><g transform="translate(59.676258, 30.1054)"><g><path d="M -0.0625 -0.390625 L 0.09375 -0.75 L 0.21875 -1.15625 L 0.265625 -1.546875 L 0.453125 -1.9375 L 0.484375 -2.328125 L 0.578125 -2.65625 L 0.703125 -3.03125 L 0.75 -3.421875 L 0.875 -3.84375 L 1.03125 -4.203125 L 1.09375 -4.59375 L 1.15625 -4.96875 L 1.265625 -5.359375 L 1.390625 -5.75 L 1.484375 -6.140625 L 1.546875 -6.5 L 1.75 -6.90625 L 1.78125 -7.265625 L 1.9375 -7.71875 L 2.0625 -8.078125 L 2.09375 -8.40625 L 2.203125 -8.84375 L 2.296875 -9.234375 L 2.359375 -9.5625 L 2.546875 -10.015625 L 2.546875 -10.40625 L 2.71875 -10.8125 L 2.75 -11.171875 L 2.84375 -11.53125 L 3.03125 -11.921875 L 3.09375 -12.3125 L 3.140625 -12.6875 L 3.296875 -13.046875 L 3.84375 -13.4375 L 4.234375 -13.46875 L 4.6875 -13.46875 L 5.046875 -13.046875 L 4.9375 -12.625 L 4.84375 -12.28125 L 4.75 -11.828125 L 4.6875 -11.5 L 4.65625 -11.015625 L 4.546875 -10.625 L 4.390625 -10.296875 L 4.296875 -9.890625 L 4.203125 -9.46875 L 4.171875 -9.109375 L 4.390625 -9.4375 L 4.65625 -9.75 L 4.78125 -10.140625 L 5.046875 -10.5 L 5.265625 -10.828125 L 5.484375 -11.203125 L 5.71875 -11.46875 L 5.96875 -11.859375 L 6.171875 -12.140625 L 6.5 -12.4375 L 6.6875 -12.734375 L 7.078125 -13.046875 L 7.421875 -13.25 L 7.71875 -13.5 L 8.046875 -13.6875 L 8.40625 -13.796875 L 8.875 -13.921875 L 9.5625 -13.890625 L 9.953125 -13.796875 L 10.375 -13.65625 L 10.6875 -13.40625 L 10.921875 -13.171875 L 11.203125 -12.765625 L 11.375 -12.4375 L 11.46875 -12.078125 L 11.53125 -11.71875 L 11.5625 -11.34375 L 11.65625 -10.53125 L 11.53125 -10.109375 L 11.53125 -9.75 L 11.015625 -9.328125 L 10.65625 -9.328125 L 10.296875 -9.375 L 9.890625 -9.375 L 9.625 -9.6875 L 9.75 -10.109375 L 9.75 -10.890625 L 9.65625 -11.234375 L 9.40625 -11.5 L 9.171875 -11.796875 L 8.84375 -11.921875 L 8.171875 -11.984375 L 7.875 -11.890625 L 7.53125 -11.71875 L 7.359375 -11.46875 L 7.015625 -11.265625 L 6.453125 -10.71875 L 6.265625 -10.40625 L 6.078125 -10.015625 L 5.78125 -9.6875 L 5.65625 -9.359375 L 5.453125 -9.015625 L 5.140625 -8.71875 L 5.03125 -8.296875 L 4.8125 -7.984375 L 4.59375 -7.59375 L 4.421875 -7.265625 L 4.328125 -6.84375 L 4.140625 -6.484375 L 4 -6.078125 L 3.8125 -5.71875 L 3.625 -5.328125 L 3.515625 -5 L 3.390625 -4.5625 L 3.171875 -4.203125 L 3.125 -3.875 L 3 -3.484375 L 2.78125 -3.125 L 2.65625 -2.6875 L 2.609375 -2.296875 L 2.484375 -1.9375 L 2.296875 -1.515625 L 2.203125 -1.15625 L 2.125 -0.78125 L 1.90625 -0.390625 L 1.390625 -0.03125 L 1 -0.03125 L 0.640625 0.0625 L 0.328125 0.0625 Z M -0.0625 -0.390625 "/></g></g></g><g fill="#000000" fill-opacity="1"><g transform="translate(71.172722, 30.1054)"><g><path d="M 6.328125 0.484375 L 5.9375 0.421875 L 5.484375 0.421875 L 5.140625 0.234375 L 4.75 0.1875 L 4.421875 -0.03125 L 4 -0.21875 L 3.71875 -0.421875 L 3.359375 -0.671875 L 3.140625 -0.90625 L 2.78125 -1.15625 L 2.578125 -1.515625 L 2.359375 -1.8125 L 2.203125 -2.171875 L 2.0625 -2.515625 L 1.90625 -2.875 L 1.6875 -3.265625 L 1.671875 -3.625 L 1.546875 -4.0625 L 1.515625 -4.484375 L 1.546875 -4.84375 L 1.546875 -6.484375 L 1.609375 -6.84375 L 1.671875 -7.234375 L 1.8125 -7.59375 L 1.9375 -7.984375 L 1.96875 -8.390625 L 2.09375 -8.71875 L 2.296875 -9.140625 L 2.484375 -9.4375 L 2.609375 -9.8125 L 2.84375 -10.171875 L 3.0625 -10.53125 L 3.234375 -10.890625 L 3.421875 -11.203125 L 3.65625 -11.46875 L 3.96875 -11.75 L 4.265625 -12.078125 L 4.546875 -12.375 L 4.78125 -12.5625 L 5.109375 -12.828125 L 5.453125 -13.078125 L 5.84375 -13.21875 L 6.171875 -13.40625 L 6.53125 -13.5625 L 6.875 -13.65625 L 7.265625 -13.734375 L 7.65625 -13.796875 L 8.109375 -13.890625 L 8.921875 -13.890625 L 9.234375 -13.828125 L 9.71875 -13.734375 L 10.015625 -13.59375 L 10.375 -13.46875 L 10.75 -13.21875 L 11.078125 -13.046875 L 11.28125 -12.734375 L 11.5625 -12.40625 L 11.71875 -12.078125 L 11.890625 -11.765625 L 11.921875 -11.375 L 12.046875 -10.953125 L 12.046875 -10.171875 L 11.953125 -9.78125 L 11.921875 -9.375 L 11.796875 -9.015625 L 11.59375 -8.6875 L 11.4375 -8.359375 L 11.171875 -8.015625 L 10.921875 -7.75 L 10.59375 -7.5 L 10.375 -7.171875 L 9.984375 -6.9375 L 9.6875 -6.78125 L 9.328125 -6.5 L 8.953125 -6.359375 L 8.625 -6.171875 L 8.296875 -6.015625 L 7.875 -5.84375 L 7.5 -5.75 L 7.078125 -5.625 L 6.71875 -5.484375 L 5.9375 -5.359375 L 5.59375 -5.234375 L 5.140625 -5.171875 L 4.71875 -5.171875 L 4.328125 -5.140625 L 4 -5.046875 L 3.625 -4.6875 L 3.625 -4.234375 L 3.78125 -3.90625 L 3.84375 -3.515625 L 4.03125 -3.140625 L 4.265625 -2.75 L 4.515625 -2.421875 L 4.71875 -2.171875 L 5.078125 -1.9375 L 5.484375 -1.6875 L 5.78125 -1.546875 L 6.171875 -1.421875 L 6.625 -1.359375 L 7.296875 -1.421875 L 7.78125 -1.453125 L 8.140625 -1.484375 L 8.46875 -1.578125 L 8.8125 -1.609375 L 9.171875 -1.75 L 9.53125 -1.875 L 9.859375 -2.03125 L 10.203125 -2.203125 L 10.65625 -2.328125 L 10.921875 -2.609375 L 11.234375 -2.78125 L 11.5625 -3 L 11.828125 -3.265625 L 12.171875 -3.515625 L 12.5 -3.84375 L 12.71875 -4.140625 L 13.015625 -4.390625 L 13.28125 -4.6875 L 13.4375 -5.03125 L 13.703125 -5.421875 L 13.921875 -5.6875 L 14.140625 -6.015625 L 14.34375 -6.390625 L 14.5625 -6.78125 L 15.078125 -6.875 L 15.375 -6.65625 L 15.5625 -6.015625 L 15.375 -5.6875 L 15.125 -5.390625 L 14.953125 -5.046875 L 14.796875 -4.71875 L 14.5625 -4.421875 L 14.3125 -4.03125 L 14.140625 -3.71875 L 13.890625 -3.421875 L 13.6875 -3.09375 L 13.34375 -2.875 L 13.171875 -2.515625 L 12.796875 -2.296875 L 12.53125 -1.96875 L 11.984375 -1.421875 L 11.71875 -1.1875 L 11.375 -1 L 11.046875 -0.71875 L 10.75 -0.609375 L 10.40625 -0.359375 L 10.046875 -0.21875 L 9.6875 -0.03125 L 9.265625 0.09375 L 8.890625 0.1875 L 8.265625 0.390625 L 7.875 0.453125 L 7.390625 0.421875 L 7.078125 0.453125 Z M 3.9375 -6.453125 L 4.328125 -6.53125 L 5.171875 -6.59375 L 5.484375 -6.71875 L 5.9375 -6.78125 L 6.265625 -6.84375 L 6.71875 -6.9375 L 7.015625 -7.078125 L 7.421875 -7.234375 L 7.8125 -7.421875 L 8.140625 -7.625 L 8.4375 -7.78125 L 8.8125 -8.015625 L 9.140625 -8.328125 L 9.375 -8.5625 L 9.6875 -8.84375 L 9.84375 -9.203125 L 9.953125 -9.59375 L 10.140625 -9.921875 L 10.109375 -10.71875 L 9.984375 -11.109375 L 9.6875 -11.40625 L 9.46875 -11.65625 L 9.015625 -11.890625 L 8.65625 -11.921875 L 7.921875 -11.953125 L 7.078125 -11.796875 L 6.78125 -11.65625 L 6.484375 -11.46875 L 6.109375 -11.265625 L 5.75 -10.984375 L 5.484375 -10.6875 L 5.234375 -10.4375 L 5.03125 -10.109375 L 4.78125 -9.84375 L 4.546875 -9.46875 L 4.328125 -9.140625 L 4.140625 -8.71875 L 4.0625 -8.359375 L 3.9375 -8.046875 L 3.8125 -7.625 L 3.71875 -7.203125 L 3.65625 -6.8125 Z M 3.9375 -6.453125 "/></g></g></g><g fill="#000000" fill-opacity="1"><g transform="translate(84.060861, 30.1054)"><g><path d="M 5.359375 0.390625 L 5 0.328125 L 4.59375 0.296875 L 4.234375 0.1875 L 3.875 0.09375 L 3.484375 -0.03125 L 3.140625 -0.234375 L 2.75 -0.421875 L 2.484375 -0.609375 L 2.09375 -0.84375 L 1.75 -1.03125 L 1.6875 -1.578125 L 1.875 -1.875 L 2.125 -2.203125 L 2.359375 -2.546875 L 2.84375 -2.609375 L 3.234375 -2.359375 L 3.578125 -2.09375 L 3.90625 -1.90625 L 4.265625 -1.78125 L 5.359375 -1.453125 L 5.8125 -1.390625 L 6.53125 -1.390625 L 6.96875 -1.421875 L 7.296875 -1.484375 L 7.71875 -1.640625 L 8.046875 -1.78125 L 8.328125 -2.0625 L 8.59375 -2.296875 L 8.875 -2.640625 L 8.953125 -2.90625 L 9.046875 -3.328125 L 9.109375 -4.0625 L 8.890625 -4.484375 L 8.71875 -4.8125 L 8.4375 -5.046875 L 8.140625 -5.328125 L 7.875 -5.5625 L 7.5625 -5.8125 L 7.234375 -6.015625 L 6.90625 -6.171875 L 6.53125 -6.421875 L 6.140625 -6.59375 L 5.84375 -6.8125 L 5.484375 -7.078125 L 5.203125 -7.359375 L 4.875 -7.59375 L 4.65625 -7.875 L 4.453125 -8.171875 L 4.265625 -8.5 L 3.90625 -8.5 L 3.75 -8.171875 L 3.546875 -7.84375 L 3.359375 -7.5 L 3.234375 -7.171875 L 3 -6.84375 L 2.875 -6.5625 L 2.65625 -6.171875 L 2.515625 -5.875 L 1.9375 -5.8125 L 1.640625 -5.96875 L 1.453125 -6.5625 L 1.6875 -6.875 L 1.84375 -7.265625 L 2.09375 -7.59375 L 2.171875 -7.921875 L 2.421875 -8.328125 L 2.515625 -8.625 L 2.71875 -8.953125 L 2.875 -9.328125 L 3.125 -9.6875 L 3.265625 -10.109375 L 3.390625 -10.4375 L 3.609375 -10.75 L 3.71875 -11.171875 L 4.171875 -11.796875 L 4.328125 -12.203125 L 4.625 -12.4375 L 4.84375 -12.765625 L 5.171875 -13.015625 L 5.515625 -13.21875 L 5.78125 -13.40625 L 6.171875 -13.59375 L 6.5625 -13.6875 L 6.984375 -13.828125 L 7.328125 -13.859375 L 8.5625 -13.859375 L 8.953125 -13.890625 L 9.328125 -13.734375 L 9.75 -13.65625 L 10.078125 -13.5625 L 10.34375 -13.375 L 10.71875 -13.109375 L 10.953125 -12.921875 L 11.3125 -12.625 L 11.46875 -12.25 L 11.65625 -11.984375 L 11.765625 -11.59375 L 11.921875 -11.203125 L 12.015625 -10.859375 L 12.046875 -10.4375 L 11.5625 -10.109375 L 11.109375 -10.109375 L 10.71875 -10.078125 L 10.296875 -10.4375 L 10.203125 -10.859375 L 10.015625 -11.234375 L 9.78125 -11.53125 L 9.5625 -11.75 L 9.203125 -11.984375 L 8.8125 -12.140625 L 8.40625 -12.203125 L 7.6875 -12.203125 L 7.203125 -12.171875 L 6.875 -12.015625 L 6.5625 -11.828125 L 6.171875 -11.53125 L 6.015625 -11.203125 L 5.78125 -10.859375 L 5.65625 -10.46875 L 5.625 -9.75 L 5.8125 -9.375 L 6.015625 -9.015625 L 6.265625 -8.78125 L 6.453125 -8.4375 L 6.8125 -8.265625 L 7.140625 -8.015625 L 7.78125 -7.65625 L 8.109375 -7.390625 L 8.390625 -7.203125 L 8.71875 -7.015625 L 9.109375 -6.78125 L 9.359375 -6.53125 L 9.6875 -6.296875 L 9.984375 -6.078125 L 10.328125 -5.8125 L 10.5 -5.453125 L 10.71875 -5.171875 L 10.8125 -4.75 L 10.984375 -4.453125 L 11.046875 -4 L 10.984375 -3.265625 L 11.015625 -2.8125 L 10.921875 -2.421875 L 10.78125 -2.09375 L 10.59375 -1.71875 L 10.40625 -1.390625 L 10.171875 -1.125 L 9.859375 -0.8125 L 9.296875 -0.265625 L 8.875 -0.125 L 8.53125 0.0625 L 8.109375 0.21875 L 7.71875 0.265625 L 7.015625 0.421875 L 6.53125 0.484375 Z M 5.359375 0.390625 "/></g></g></g><g fill="#000000" fill-opacity="1"><g transform="translate(95.890126, 30.1054)"><g><path d="M 6.625 0.453125 L 6.234375 0.421875 L 5.90625 0.328125 L 5.484375 0.234375 L 4.6875 0.03125 L 4.359375 -0.1875 L 4.03125 -0.359375 L 3.6875 -0.609375 L 3.421875 -0.8125 L 3.125 -1.125 L 2.8125 -1.390625 L 2.609375 -1.75 L 2.390625 -2.03125 L 2.171875 -2.390625 L 2.125 -2.78125 L 1.90625 -3.140625 L 1.75 -3.546875 L 1.671875 -3.84375 L 1.640625 -4.265625 L 1.578125 -4.65625 L 1.578125 -5.046875 L 1.609375 -5.875 L 1.578125 -6.203125 L 1.671875 -6.65625 L 1.6875 -7.046875 L 1.75 -7.453125 L 1.8125 -7.78125 L 1.96875 -8.203125 L 2.0625 -8.5625 L 2.15625 -8.890625 L 2.390625 -9.296875 L 2.484375 -9.59375 L 2.65625 -9.984375 L 2.90625 -10.328125 L 3.0625 -10.6875 L 3.296875 -10.921875 L 3.578125 -11.28125 L 3.78125 -11.59375 L 4.078125 -11.859375 L 4.328125 -12.109375 L 4.65625 -12.375 L 5.171875 -12.890625 L 5.59375 -13.109375 L 5.90625 -13.28125 L 6.203125 -13.40625 L 6.59375 -13.625 L 6.984375 -13.65625 L 7.328125 -13.796875 L 7.6875 -13.890625 L 8.109375 -13.890625 L 8.875 -13.921875 L 9.328125 -13.859375 L 9.6875 -13.734375 L 10.171875 -13.625 L 10.5 -13.4375 L 10.78125 -13.21875 L 11.171875 -12.984375 L 11.4375 -12.734375 L 11.71875 -12.40625 L 11.828125 -12.046875 L 11.953125 -11.6875 L 12.046875 -11.265625 L 12.109375 -10.859375 L 12.109375 -9.625 L 11.59375 -9.234375 L 11.109375 -9.234375 L 10.75 -9.203125 L 10.296875 -9.6875 L 10.328125 -10.53125 L 10.171875 -10.890625 L 10.078125 -11.203125 L 9.78125 -11.53125 L 9.4375 -11.765625 L 9.078125 -11.921875 L 8.78125 -12.015625 L 7.5 -11.953125 L 7.203125 -11.828125 L 6.8125 -11.6875 L 6.484375 -11.46875 L 6.171875 -11.234375 L 5.84375 -11.046875 L 5.515625 -10.78125 L 5.203125 -10.40625 L 4.96875 -10.109375 L 4.8125 -9.8125 L 4.546875 -9.46875 L 4.390625 -9.109375 L 4.171875 -8.75 L 4 -8.328125 L 3.9375 -7.953125 L 3.78125 -7.625 L 3.75 -7.203125 L 3.6875 -6.78125 L 3.578125 -6.421875 L 3.546875 -5.96875 L 3.546875 -5.140625 L 3.609375 -4.75 L 3.625 -4.390625 L 3.78125 -4.0625 L 3.90625 -3.65625 L 4.078125 -3.296875 L 4.203125 -2.9375 L 4.546875 -2.609375 L 4.78125 -2.390625 L 5.046875 -2.0625 L 5.328125 -1.84375 L 5.6875 -1.671875 L 6.046875 -1.578125 L 6.453125 -1.484375 L 6.84375 -1.421875 L 7.6875 -1.390625 L 8.015625 -1.421875 L 8.40625 -1.453125 L 8.78125 -1.546875 L 9.109375 -1.671875 L 9.5 -1.6875 L 9.859375 -1.875 L 10.265625 -2.0625 L 10.59375 -2.171875 L 10.828125 -2.390625 L 11.203125 -2.578125 L 11.53125 -2.8125 L 11.765625 -3.0625 L 12.109375 -3.328125 L 12.375 -3.546875 L 12.65625 -3.8125 L 12.921875 -4.109375 L 13.203125 -4.453125 L 13.46875 -4.78125 L 13.65625 -5.078125 L 13.890625 -5.359375 L 14.109375 -5.75 L 14.34375 -6.015625 L 14.5 -6.453125 L 14.703125 -6.71875 L 15.21875 -6.90625 L 15.640625 -6.59375 L 15.734375 -6.078125 L 15.59375 -5.75 L 15.3125 -5.390625 L 15.125 -5.046875 L 14.890625 -4.65625 L 14.703125 -4.359375 L 14.40625 -4.0625 L 14.25 -3.71875 L 14.015625 -3.390625 L 13.703125 -3.0625 L 13.53125 -2.75 L 13.25 -2.484375 L 12.984375 -2.203125 L 12.65625 -1.9375 L 12.34375 -1.671875 L 12.140625 -1.359375 L 11.765625 -1.125 L 11.40625 -0.90625 L 11.140625 -0.671875 L 10.78125 -0.515625 L 10.5 -0.328125 L 10.078125 -0.15625 L 9.71875 0.03125 L 9.375 0.1875 L 9.015625 0.21875 L 8.5625 0.296875 L 8.203125 0.390625 L 7.875 0.453125 Z M 6.625 0.453125 "/></g></g></g><g fill="#000000" fill-opacity="1"><g transform="translate(108.959794, 30.1054)"><g><path d="M 19.03125 -13.5625 L 19.375 -13.375 L 19.515625 -12.859375 L 19.375 -12.46875 L 19.15625 -12.109375 L 18.96875 -11.828125 L 18.765625 -11.40625 L 18.578125 -11.078125 L 18.40625 -10.78125 L 18.09375 -10.40625 L 17.859375 -10.109375 L 17.578125 -9.84375 L 17.375 -9.53125 L 17.125 -9.265625 L 16.796875 -8.953125 L 16.46875 -8.6875 L 16.15625 -8.53125 L 15.828125 -8.265625 L 15.109375 -8.015625 L 14.671875 -7.90625 L 13.625 -7.84375 L 13.4375 -7.46875 L 13.25 -6.6875 L 13.28125 -6.328125 L 13.140625 -5.90625 L 13.046875 -5.515625 L 12.984375 -5.171875 L 12.828125 -4.78125 L 12.65625 -4.390625 L 12.53125 -4.078125 L 12.3125 -3.75 L 12.171875 -3.390625 L 11.921875 -3.03125 L 11.71875 -2.75 L 11.53125 -2.390625 L 11.28125 -2.09375 L 10.984375 -1.8125 L 10.65625 -1.546875 L 10.4375 -1.265625 L 10.171875 -1.03125 L 9.859375 -0.75 L 9.53125 -0.578125 L 9.109375 -0.328125 L 8.5 0.03125 L 8.140625 0.15625 L 7.75 0.265625 L 7.359375 0.328125 L 6.9375 0.453125 L 6.53125 0.421875 L 5.84375 0.421875 L 5.484375 0.453125 L 5.078125 0.328125 L 4.65625 0.21875 L 4.296875 0.125 L 4.03125 -0.03125 L 3.6875 -0.234375 L 3.359375 -0.484375 L 3.0625 -0.75 L 2.71875 -1.03125 L 2.515625 -1.296875 L 2.265625 -1.578125 L 2.15625 -1.90625 L 1.9375 -2.234375 L 1.78125 -2.640625 L 1.640625 -2.96875 L 1.640625 -3.421875 L 1.515625 -3.78125 L 1.484375 -4.109375 L 1.421875 -4.515625 L 1.390625 -5.296875 L 1.453125 -5.71875 L 1.546875 -6.046875 L 1.515625 -6.453125 L 1.578125 -6.875 L 1.671875 -7.203125 L 1.78125 -7.59375 L 1.90625 -8.015625 L 1.96875 -8.40625 L 2.15625 -8.71875 L 2.359375 -9.109375 L 2.421875 -9.46875 L 2.640625 -9.8125 L 2.875 -10.109375 L 3.03125 -10.4375 L 3.234375 -10.8125 L 3.484375 -11.078125 L 3.78125 -11.40625 L 4 -11.6875 L 4.296875 -11.953125 L 4.625 -12.234375 L 4.875 -12.5 L 5.203125 -12.734375 L 5.484375 -12.890625 L 5.875 -13.140625 L 6.234375 -13.28125 L 6.53125 -13.40625 L 6.90625 -13.59375 L 7.296875 -13.703125 L 7.625 -13.796875 L 8.046875 -13.890625 L 8.40625 -13.890625 L 9.203125 -13.921875 L 9.625 -13.828125 L 9.953125 -13.796875 L 10.328125 -13.625 L 10.71875 -13.46875 L 11.078125 -13.3125 L 11.34375 -13.109375 L 11.71875 -12.859375 L 12.015625 -12.59375 L 12.25 -12.28125 L 12.53125 -12.015625 L 12.71875 -11.71875 L 12.953125 -11.28125 L 13.078125 -10.953125 L 13.203125 -10.5625 L 13.25 -10.171875 L 13.3125 -9.8125 L 13.703125 -9.328125 L 14.53125 -9.328125 L 14.890625 -9.40625 L 15.28125 -9.46875 L 15.640625 -9.65625 L 15.890625 -9.890625 L 16.25 -10.109375 L 16.578125 -10.375 L 16.765625 -10.65625 L 17.015625 -10.984375 L 17.375 -11.28125 L 17.609375 -11.59375 L 17.796875 -11.953125 L 17.953125 -12.28125 L 18.15625 -12.59375 L 18.34375 -12.953125 L 18.609375 -13.375 Z M 6.71875 -1.390625 L 7.078125 -1.453125 L 7.46875 -1.640625 L 7.8125 -1.75 L 8.265625 -1.90625 L 8.59375 -2.125 L 8.890625 -2.359375 L 9.109375 -2.65625 L 9.40625 -2.90625 L 9.6875 -3.234375 L 9.890625 -3.484375 L 10.203125 -3.84375 L 10.40625 -4.140625 L 10.5625 -4.515625 L 10.6875 -4.875 L 10.859375 -5.265625 L 11.046875 -5.5625 L 11.140625 -5.96875 L 11.171875 -6.390625 L 11.265625 -6.78125 L 11.40625 -7.140625 L 11.46875 -7.5 L 11.5 -7.90625 L 11.40625 -8.6875 L 11.4375 -9.109375 L 11.34375 -9.53125 L 11.203125 -9.859375 L 11.109375 -10.296875 L 10.921875 -10.625 L 10.59375 -10.953125 L 10.40625 -11.234375 L 10.140625 -11.53125 L 9.6875 -11.75 L 9.40625 -11.859375 L 8.984375 -11.984375 L 8.234375 -11.953125 L 7.875 -11.953125 L 7.390625 -11.796875 L 7.078125 -11.6875 L 6.6875 -11.46875 L 6.390625 -11.3125 L 6.078125 -11.078125 L 5.75 -10.828125 L 5.453125 -10.53125 L 5.296875 -10.265625 L 5.03125 -10.015625 L 4.71875 -9.65625 L 4.59375 -9.296875 L 4.421875 -8.984375 L 4.203125 -8.65625 L 4.0625 -8.265625 L 3.90625 -7.921875 L 3.78125 -7.53125 L 3.625 -7.140625 L 3.546875 -6.78125 L 3.515625 -6.421875 L 3.484375 -6.015625 L 3.390625 -5.5625 L 3.484375 -4.84375 L 3.453125 -4.390625 L 3.609375 -4.078125 L 3.6875 -3.6875 L 3.8125 -3.296875 L 3.90625 -2.96875 L 4.078125 -2.640625 L 4.328125 -2.296875 L 4.625 -2.0625 L 5 -1.78125 L 5.296875 -1.640625 L 5.59375 -1.515625 L 6.015625 -1.453125 Z M 6.71875 -1.390625 "/></g></g></g><g clip-path="url(#890d9fdfc4)"><path fill="#ffce22" d="M 42.652344 23.667969 C 42.652344 23.695312 42.652344 23.726562 42.652344 23.757812 C 42.652344 28.449219 34.15625 32.25 23.675781 32.25 C 22.1875 32.25 20.738281 32.175781 19.347656 32.027344 C 18.777344 31.96875 18.914062 31.996094 18.929688 31.371094 C 18.96875 29.878906 19.085938 26.984375 19.09375 25.863281 C 19.101562 24.617188 19.101562 24.621094 19.085938 24.648438 C 19.078125 24.65625 19.074219 24.667969 19.019531 24.707031 L 19.023438 24.703125 L 19.027344 24.695312 L 19.035156 24.683594 L 19.042969 24.675781 L 19.046875 24.664062 L 19.054688 24.652344 L 19.058594 24.648438 L 19.066406 24.632812 L 19.066406 24.628906 C 19.070312 24.617188 19.070312 24.609375 19.078125 24.59375 L 19.078125 24.585938 L 19.082031 24.582031 L 19.082031 24.574219 L 19.085938 24.558594 C 19.089844 24.550781 19.09375 24.539062 19.09375 24.53125 L 19.09375 24.523438 L 19.097656 24.507812 L 19.097656 24.503906 L 19.101562 24.488281 L 19.101562 24.480469 L 19.105469 24.472656 L 19.105469 24.417969 L 19.109375 24.414062 L 19.109375 24.34375 L 19.113281 24.339844 L 19.113281 24.238281 L 19.109375 24.234375 L 19.109375 24.148438 C 19.101562 23.457031 19.078125 21.988281 19.066406 21.371094 C 19.054688 20.75 19.054688 20.976562 19.550781 19.40625 C 20.046875 17.839844 21.042969 14.476562 21.546875 12.886719 C 22.058594 11.296875 22.078125 11.480469 21.886719 11.75 C 21.695312 12.019531 21.289062 12.378906 19.261719 13.476562 C 17.234375 14.574219 13.589844 16.410156 11.8125 17.269531 C 10.035156 18.132812 10.125 18.019531 10.160156 19.957031 C 10.195312 21.890625 10.171875 25.878906 10.171875 27.859375 L 10.171875 28.363281 L 10.167969 28.398438 L 10.167969 28.492188 L 10.171875 28.511719 L 10.171875 29.507812 L 10.175781 29.523438 L 10.175781 29.621094 L 10.179688 29.625 L 10.179688 29.691406 L 10.183594 29.699219 L 10.183594 29.730469 C 6.796875 28.195312 4.703125 26.085938 4.703125 23.757812 C 4.703125 23.613281 4.710938 23.460938 4.726562 23.316406 C 4.710938 23.007812 4.710938 22.601562 4.707031 22.046875 C 4.703125 20.574219 4.5 13.484375 4.71875 12.636719 C 4.800781 12.316406 5.128906 11.210938 5.71875 10.972656 C 6.304688 10.738281 7.398438 10.429688 8.457031 10.160156 C 9.515625 9.890625 10.53125 9.667969 12.859375 9.292969 C 15.1875 8.921875 18.824219 8.402344 23.90625 8.855469 C 28.992188 9.304688 35.519531 10.726562 38.886719 11.578125 C 42.253906 12.429688 42.542969 12.554688 42.636719 12.617188 C 42.695312 12.652344 42.746094 20.300781 42.746094 21.003906 C 42.75 22.878906 42.703125 23.316406 42.679688 23.535156 C 42.671875 23.585938 42.664062 23.625 42.652344 23.667969 Z M 42.652344 23.667969 " fill-opacity="1" fill-rule="evenodd"/></g><g clip-path="url(#47cb983335)"><path fill="#ffe053" d="M 23.671875 4.5 C 34.152344 4.5 42.652344 8.304688 42.652344 12.996094 C 42.652344 17.6875 34.15625 21.488281 23.671875 21.488281 C 22.074219 21.488281 20.519531 21.402344 19.039062 21.234375 C 19.113281 21.011719 19.222656 20.6875 19.390625 20.15625 C 19.886719 18.589844 20.878906 15.226562 21.390625 13.636719 C 21.898438 12.046875 21.917969 12.230469 21.726562 12.5 C 21.535156 12.769531 21.128906 13.128906 19.101562 14.226562 C 18.101562 14.769531 10.882812 18.757812 10.152344 18.953125 C 6.777344 17.421875 4.699219 15.316406 4.699219 12.996094 C 4.699219 8.304688 13.195312 4.5 23.671875 4.5 Z M 23.671875 4.5 " fill-opacity="1" fill-rule="evenodd"/></g><path fill="#fbaf17" d="M 31.335938 23.789062 C 31.789062 23.804688 32.101562 24.148438 32.035156 24.558594 C 31.964844 24.96875 31.542969 25.292969 31.089844 25.277344 C 30.636719 25.265625 30.328125 24.925781 30.394531 24.511719 C 30.464844 24.097656 30.886719 23.777344 31.335938 23.789062 Z M 31.335938 23.789062 " fill-opacity="1" fill-rule="evenodd"/><path fill="#fdbe19" d="M 31.613281 25.140625 C 31.457031 25.230469 31.277344 25.285156 31.089844 25.277344 C 30.636719 25.265625 30.328125 24.925781 30.394531 24.511719 C 30.414062 24.414062 30.449219 24.320312 30.503906 24.234375 C 30.65625 24.140625 30.835938 24.089844 31.023438 24.09375 C 31.476562 24.105469 31.789062 24.453125 31.71875 24.863281 C 31.703125 24.960938 31.664062 25.058594 31.613281 25.140625 Z M 31.613281 25.140625 " fill-opacity="1" fill-rule="evenodd"/><path fill="#fefefe" d="M 31.777344 25.015625 C 31.597656 25.207031 31.332031 25.332031 31.046875 25.324219 C 30.597656 25.3125 30.285156 24.964844 30.351562 24.554688 C 30.378906 24.378906 30.476562 24.222656 30.605469 24.097656 C 30.496094 24.214844 30.417969 24.355469 30.394531 24.511719 C 30.328125 24.925781 30.636719 25.265625 31.089844 25.277344 C 31.351562 25.285156 31.601562 25.183594 31.777344 25.015625 Z M 31.777344 25.015625 " fill-opacity="1" fill-rule="evenodd"/><path fill="#fdbe19" d="M 10.175781 29.597656 Z M 19.105469 23.921875 C 19.09375 23.179688 19.070312 21.925781 19.058594 21.367188 C 19.058594 21.316406 19.058594 21.277344 19.058594 21.234375 C 19.050781 21.234375 19.042969 21.234375 19.039062 21.234375 C 19.042969 21.214844 19.050781 21.191406 19.058594 21.167969 C 19.058594 20.773438 19.109375 20.777344 19.546875 19.402344 C 20.042969 17.835938 21.039062 14.472656 21.542969 12.882812 C 21.574219 12.789062 21.605469 12.703125 21.632812 12.617188 C 21.390625 12.882812 20.847656 13.28125 19.101562 14.226562 C 17.074219 15.324219 12.449219 17.527344 11.648438 18.023438 C 10.851562 18.519531 10.492188 18.753906 10.148438 18.953125 C 10.144531 18.949219 10.144531 18.949219 10.144531 18.949219 C 10.136719 19.210938 10.148438 19.53125 10.15625 19.953125 C 10.191406 21.886719 10.171875 25.871094 10.167969 27.851562 L 10.167969 28.355469 L 10.164062 28.394531 L 10.164062 28.488281 L 10.167969 28.507812 L 10.167969 29.265625 L 10.171875 29.292969 L 10.171875 29.613281 L 10.175781 29.617188 L 10.175781 29.683594 L 10.179688 29.691406 L 10.179688 29.722656 Z M 19.105469 23.921875 " fill-opacity="1" fill-rule="evenodd"/><path fill="#fbaf17" d="M 17.796875 16.910156 C 18.277344 16.851562 18.609375 17.105469 18.539062 17.488281 C 18.464844 17.867188 18.015625 18.226562 17.53125 18.289062 C 17.050781 18.351562 16.714844 18.09375 16.789062 17.710938 C 16.863281 17.332031 17.3125 16.976562 17.796875 16.910156 Z M 17.796875 16.910156 " fill-opacity="1" fill-rule="evenodd"/><path fill="#fdbe19" d="M 18.085938 18.082031 C 17.921875 18.1875 17.730469 18.265625 17.53125 18.289062 C 17.050781 18.351562 16.714844 18.09375 16.789062 17.710938 C 16.804688 17.621094 16.847656 17.53125 16.902344 17.445312 C 17.066406 17.339844 17.261719 17.261719 17.460938 17.238281 C 17.941406 17.171875 18.277344 17.429688 18.203125 17.8125 C 18.183594 17.902344 18.144531 17.992188 18.085938 18.082031 Z M 18.085938 18.082031 " fill-opacity="1" fill-rule="evenodd"/><path fill="#fefefe" d="M 18.265625 17.941406 C 18.074219 18.140625 17.785156 18.292969 17.484375 18.332031 C 17.003906 18.398438 16.671875 18.140625 16.746094 17.757812 C 16.773438 17.597656 16.875 17.441406 17.015625 17.308594 C 16.898438 17.429688 16.816406 17.570312 16.789062 17.714844 C 16.71875 18.09375 17.050781 18.351562 17.535156 18.292969 C 17.808594 18.253906 18.078125 18.117188 18.265625 17.941406 Z M 18.265625 17.941406 " fill-opacity="1" fill-rule="evenodd"/><path fill="#fbaf17" d="M 13.039062 24.957031 C 13.59375 24.882812 13.976562 25.179688 13.890625 25.617188 C 13.808594 26.054688 13.292969 26.464844 12.734375 26.539062 C 12.179688 26.609375 11.796875 26.3125 11.878906 25.875 C 11.964844 25.441406 12.484375 25.027344 13.039062 24.957031 Z M 13.039062 24.957031 " fill-opacity="1" fill-rule="evenodd"/><path fill="#fdbe19" d="M 13.375 26.296875 C 13.1875 26.421875 12.964844 26.507812 12.730469 26.539062 C 12.179688 26.609375 11.796875 26.3125 11.878906 25.875 C 11.898438 25.773438 11.945312 25.667969 12.011719 25.570312 C 12.199219 25.445312 12.421875 25.359375 12.648438 25.328125 C 13.203125 25.253906 13.585938 25.550781 13.503906 25.992188 C 13.484375 26.09375 13.4375 26.199219 13.375 26.296875 Z M 13.375 26.296875 " fill-opacity="1" fill-rule="evenodd"/><path fill="#fefefe" d="M 13.582031 26.136719 C 13.359375 26.367188 13.027344 26.546875 12.683594 26.585938 C 12.128906 26.664062 11.746094 26.367188 11.828125 25.925781 C 11.867188 25.738281 11.980469 25.558594 12.144531 25.40625 C 12.007812 25.546875 11.914062 25.710938 11.882812 25.875 C 11.800781 26.3125 12.179688 26.609375 12.734375 26.535156 C 13.054688 26.496094 13.359375 26.34375 13.582031 26.136719 Z M 13.582031 26.136719 " fill-opacity="1" fill-rule="evenodd"/><path fill="#fbaf17" d="M 12.390625 19.085938 C 12.625 19.054688 12.78125 19.179688 12.746094 19.363281 C 12.710938 19.546875 12.496094 19.714844 12.261719 19.746094 C 12.035156 19.777344 11.871094 19.65625 11.910156 19.472656 C 11.945312 19.289062 12.160156 19.117188 12.390625 19.085938 Z M 12.390625 19.085938 " fill-opacity="1" fill-rule="evenodd"/><path fill="#fdbe19" d="M 12.53125 19.648438 C 12.453125 19.699219 12.359375 19.734375 12.261719 19.746094 C 12.035156 19.777344 11.871094 19.65625 11.910156 19.472656 C 11.917969 19.425781 11.9375 19.382812 11.960938 19.34375 C 12.042969 19.292969 12.132812 19.253906 12.230469 19.242188 C 12.464844 19.214844 12.621094 19.335938 12.585938 19.519531 C 12.578125 19.5625 12.558594 19.605469 12.53125 19.648438 Z M 12.53125 19.648438 " fill-opacity="1" fill-rule="evenodd"/><path fill="#fefefe" d="M 12.613281 19.582031 C 12.523438 19.675781 12.386719 19.75 12.242188 19.769531 C 12.007812 19.796875 11.851562 19.675781 11.882812 19.492188 C 11.898438 19.417969 11.949219 19.339844 12.015625 19.273438 C 11.960938 19.335938 11.917969 19.402344 11.90625 19.472656 C 11.871094 19.65625 12.03125 19.777344 12.261719 19.746094 C 12.394531 19.730469 12.527344 19.664062 12.613281 19.582031 Z M 12.613281 19.582031 " fill-opacity="1" fill-rule="evenodd"/><path fill="#fbaf17" d="M 15.429688 24.09375 C 15.660156 24.066406 15.820312 24.1875 15.785156 24.371094 C 15.75 24.550781 15.53125 24.722656 15.300781 24.757812 C 15.070312 24.785156 14.910156 24.660156 14.945312 24.480469 C 14.980469 24.296875 15.195312 24.125 15.429688 24.09375 Z M 15.429688 24.09375 " fill-opacity="1" fill-rule="evenodd"/><path fill="#fdbe19" d="M 15.566406 24.65625 C 15.488281 24.707031 15.394531 24.742188 15.300781 24.757812 C 15.070312 24.785156 14.910156 24.660156 14.945312 24.480469 C 14.953125 24.433594 14.972656 24.390625 15 24.351562 C 15.078125 24.296875 15.171875 24.261719 15.265625 24.25 C 15.5 24.222656 15.65625 24.347656 15.621094 24.527344 C 15.613281 24.570312 15.597656 24.613281 15.566406 24.65625 Z M 15.566406 24.65625 " fill-opacity="1" fill-rule="evenodd"/><path fill="#fefefe" d="M 15.652344 24.585938 C 15.5625 24.683594 15.421875 24.757812 15.28125 24.777344 C 15.046875 24.804688 14.890625 24.683594 14.925781 24.5 C 14.9375 24.425781 14.988281 24.347656 15.058594 24.285156 C 15 24.34375 14.960938 24.410156 14.945312 24.480469 C 14.910156 24.660156 15.070312 24.785156 15.300781 24.753906 C 15.4375 24.738281 15.5625 24.675781 15.652344 24.585938 Z M 15.652344 24.585938 " fill-opacity="1" fill-rule="evenodd"/><path fill="#fbaf17" d="M 16.386719 20.960938 C 16.621094 20.933594 16.777344 21.054688 16.746094 21.242188 C 16.707031 21.421875 16.492188 21.59375 16.257812 21.625 C 16.03125 21.652344 15.867188 21.53125 15.90625 21.347656 C 15.941406 21.167969 16.152344 20.992188 16.386719 20.960938 Z M 16.386719 20.960938 " fill-opacity="1" fill-rule="evenodd"/><path fill="#fdbe19" d="M 16.527344 21.523438 C 16.449219 21.578125 16.355469 21.613281 16.257812 21.625 C 16.03125 21.652344 15.867188 21.53125 15.90625 21.347656 C 15.914062 21.304688 15.933594 21.261719 15.957031 21.21875 C 16.035156 21.167969 16.132812 21.128906 16.226562 21.121094 C 16.457031 21.089844 16.617188 21.214844 16.582031 21.398438 C 16.574219 21.4375 16.554688 21.484375 16.527344 21.523438 Z M 16.527344 21.523438 " fill-opacity="1" fill-rule="evenodd"/><path fill="#fefefe" d="M 16.609375 21.457031 C 16.519531 21.554688 16.382812 21.625 16.238281 21.644531 C 16.003906 21.675781 15.847656 21.550781 15.882812 21.371094 C 15.894531 21.292969 15.945312 21.214844 16.015625 21.152344 C 15.957031 21.214844 15.917969 21.28125 15.90625 21.347656 C 15.867188 21.53125 16.03125 21.65625 16.257812 21.625 C 16.394531 21.609375 16.523438 21.542969 16.609375 21.457031 Z M 16.609375 21.457031 " fill-opacity="1" fill-rule="evenodd"/><path fill="#fbaf17" d="M 38.730469 20.574219 C 39.355469 20.53125 39.789062 20.964844 39.695312 21.542969 C 39.601562 22.125 39.015625 22.628906 38.386719 22.671875 C 37.761719 22.714844 37.332031 22.285156 37.425781 21.703125 C 37.519531 21.125 38.105469 20.617188 38.730469 20.574219 Z M 38.730469 20.574219 " fill-opacity="1" fill-rule="evenodd"/><path fill="#fdbe19" d="M 39.109375 22.410156 C 38.898438 22.558594 38.648438 22.652344 38.386719 22.671875 C 37.761719 22.714844 37.332031 22.285156 37.425781 21.707031 C 37.449219 21.566406 37.5 21.429688 37.574219 21.300781 C 37.785156 21.15625 38.035156 21.058594 38.292969 21.042969 C 38.917969 20.996094 39.351562 21.429688 39.257812 22.007812 C 39.234375 22.148438 39.183594 22.285156 39.109375 22.410156 Z M 39.109375 22.410156 " fill-opacity="1" fill-rule="evenodd"/><path fill="#fefefe" d="M 39.339844 22.214844 C 39.089844 22.503906 38.71875 22.710938 38.328125 22.734375 C 37.703125 22.78125 37.269531 22.347656 37.367188 21.769531 C 37.40625 21.523438 37.535156 21.289062 37.71875 21.097656 C 37.566406 21.277344 37.460938 21.484375 37.425781 21.707031 C 37.332031 22.28125 37.761719 22.714844 38.386719 22.671875 C 38.75 22.648438 39.09375 22.472656 39.339844 22.214844 Z M 39.339844 22.214844 " fill-opacity="1" fill-rule="evenodd"/><path fill="#fbaf17" d="M 37.121094 26.636719 C 37.652344 26.613281 38.019531 26.992188 37.9375 27.484375 C 37.859375 27.972656 37.359375 28.390625 36.828125 28.410156 C 36.292969 28.429688 35.925781 28.054688 36.007812 27.5625 C 36.089844 27.070312 36.585938 26.65625 37.121094 26.636719 Z M 37.121094 26.636719 " fill-opacity="1" fill-rule="evenodd"/><path fill="#fdbe19" d="M 37.441406 28.207031 C 37.261719 28.324219 37.046875 28.402344 36.828125 28.410156 C 36.296875 28.429688 35.925781 28.054688 36.007812 27.5625 C 36.027344 27.445312 36.074219 27.328125 36.132812 27.226562 C 36.316406 27.105469 36.527344 27.027344 36.746094 27.019531 C 37.28125 27 37.648438 27.378906 37.566406 27.871094 C 37.546875 27.984375 37.503906 28.101562 37.441406 28.207031 Z M 37.441406 28.207031 " fill-opacity="1" fill-rule="evenodd"/><path fill="#fefefe" d="M 37.640625 28.042969 C 37.429688 28.285156 37.109375 28.449219 36.777344 28.460938 C 36.242188 28.484375 35.878906 28.105469 35.957031 27.613281 C 35.992188 27.402344 36.105469 27.210938 36.257812 27.054688 C 36.128906 27.199219 36.039062 27.375 36.007812 27.5625 C 35.925781 28.054688 36.292969 28.429688 36.828125 28.410156 C 37.132812 28.398438 37.429688 28.253906 37.640625 28.042969 Z M 37.640625 28.042969 " fill-opacity="1" fill-rule="evenodd"/><path fill="#fbaf17" d="M 23.3125 22.871094 C 23.9375 22.890625 24.371094 23.367188 24.273438 23.933594 C 24.179688 24.503906 23.59375 24.953125 22.964844 24.933594 C 22.339844 24.917969 21.90625 24.441406 22.003906 23.871094 C 22.097656 23.300781 22.683594 22.855469 23.3125 22.871094 Z M 23.3125 22.871094 " fill-opacity="1" fill-rule="evenodd"/><path fill="#fdbe19" d="M 23.691406 24.746094 C 23.480469 24.871094 23.226562 24.941406 22.96875 24.9375 C 22.34375 24.917969 21.910156 24.441406 22.003906 23.871094 C 22.027344 23.734375 22.078125 23.605469 22.152344 23.484375 C 22.367188 23.359375 22.617188 23.289062 22.875 23.292969 C 23.5 23.3125 23.933594 23.789062 23.839844 24.359375 C 23.816406 24.496094 23.761719 24.625 23.691406 24.746094 Z M 23.691406 24.746094 " fill-opacity="1" fill-rule="evenodd"/><path fill="#fefefe" d="M 23.921875 24.570312 C 23.671875 24.839844 23.300781 25.003906 22.90625 24.996094 C 22.28125 24.976562 21.851562 24.5 21.945312 23.929688 C 21.984375 23.6875 22.117188 23.46875 22.300781 23.296875 C 22.144531 23.457031 22.039062 23.65625 22.003906 23.875 C 21.90625 24.445312 22.339844 24.921875 22.964844 24.9375 C 23.328125 24.949219 23.671875 24.800781 23.921875 24.570312 Z M 23.921875 24.570312 " fill-opacity="1" fill-rule="evenodd"/><path fill="#fbaf17" d="M 28.066406 28.84375 C 28.695312 28.859375 29.125 29.335938 29.03125 29.90625 C 28.9375 30.476562 28.351562 30.925781 27.722656 30.90625 C 27.097656 30.886719 26.667969 30.410156 26.761719 29.84375 C 26.855469 29.273438 27.441406 28.824219 28.066406 28.84375 Z M 28.066406 28.84375 " fill-opacity="1" fill-rule="evenodd"/><path fill="#fdbe19" d="M 28.445312 30.714844 C 28.234375 30.84375 27.980469 30.914062 27.722656 30.90625 C 27.097656 30.890625 26.664062 30.414062 26.757812 29.84375 C 26.78125 29.707031 26.832031 29.578125 26.90625 29.457031 C 27.117188 29.332031 27.371094 29.261719 27.628906 29.269531 C 28.257812 29.285156 28.6875 29.761719 28.59375 30.332031 C 28.570312 30.46875 28.519531 30.597656 28.445312 30.714844 Z M 28.445312 30.714844 " fill-opacity="1" fill-rule="evenodd"/><path fill="#fefefe" d="M 28.675781 30.542969 C 28.425781 30.808594 28.054688 30.976562 27.664062 30.96875 C 27.039062 30.949219 26.605469 30.472656 26.703125 29.902344 C 26.742188 29.660156 26.871094 29.4375 27.054688 29.269531 C 26.902344 29.429688 26.796875 29.628906 26.761719 29.84375 C 26.667969 30.414062 27.097656 30.894531 27.722656 30.910156 C 28.082031 30.917969 28.429688 30.777344 28.675781 30.542969 Z M 28.675781 30.542969 " fill-opacity="1" fill-rule="evenodd"/><path fill="#fbaf17" d="M 25.597656 26.792969 C 25.875 26.800781 26.058594 27.011719 26.019531 27.257812 C 25.976562 27.507812 25.722656 27.699219 25.449219 27.691406 C 25.175781 27.683594 24.992188 27.476562 25.03125 27.230469 C 25.074219 26.980469 25.324219 26.785156 25.597656 26.792969 Z M 25.597656 26.792969 " fill-opacity="1" fill-rule="evenodd"/><path fill="#fdbe19" d="M 25.761719 27.609375 C 25.671875 27.664062 25.5625 27.695312 25.453125 27.691406 C 25.175781 27.683594 24.992188 27.476562 25.03125 27.230469 C 25.042969 27.167969 25.0625 27.113281 25.097656 27.0625 C 25.1875 27.003906 25.300781 26.972656 25.410156 26.976562 C 25.683594 26.984375 25.871094 27.195312 25.832031 27.441406 C 25.820312 27.5 25.796875 27.554688 25.761719 27.609375 Z M 25.761719 27.609375 " fill-opacity="1" fill-rule="evenodd"/><path fill="#fefefe" d="M 25.867188 27.535156 C 25.757812 27.648438 25.59375 27.722656 25.425781 27.71875 C 25.152344 27.710938 24.964844 27.503906 25.007812 27.253906 C 25.023438 27.148438 25.082031 27.054688 25.160156 26.980469 C 25.09375 27.046875 25.046875 27.136719 25.03125 27.230469 C 24.992188 27.480469 25.179688 27.683594 25.453125 27.691406 C 25.605469 27.695312 25.757812 27.632812 25.867188 27.535156 Z M 25.867188 27.535156 " fill-opacity="1" fill-rule="evenodd"/><path fill="#fbaf17" d="M 33.75 28.933594 C 34.019531 28.9375 34.207031 29.144531 34.167969 29.394531 C 34.125 29.644531 33.871094 29.835938 33.597656 29.832031 C 33.324219 29.824219 33.136719 29.617188 33.179688 29.363281 C 33.222656 29.117188 33.476562 28.925781 33.75 28.933594 Z M 33.75 28.933594 " fill-opacity="1" fill-rule="evenodd"/><path fill="#fdbe19" d="M 33.910156 29.746094 C 33.820312 29.800781 33.710938 29.832031 33.597656 29.832031 C 33.324219 29.824219 33.136719 29.617188 33.179688 29.363281 C 33.191406 29.304688 33.210938 29.25 33.242188 29.199219 C 33.335938 29.144531 33.445312 29.113281 33.558594 29.117188 C 33.828125 29.125 34.019531 29.328125 33.976562 29.578125 C 33.96875 29.636719 33.945312 29.695312 33.910156 29.746094 Z M 33.910156 29.746094 " fill-opacity="1" fill-rule="evenodd"/><path fill="#fefefe" d="M 34.015625 29.671875 C 33.90625 29.789062 33.746094 29.859375 33.574219 29.855469 C 33.300781 29.847656 33.117188 29.636719 33.15625 29.390625 C 33.175781 29.285156 33.230469 29.191406 33.308594 29.117188 C 33.242188 29.1875 33.199219 29.273438 33.183594 29.367188 C 33.140625 29.617188 33.328125 29.824219 33.601562 29.832031 C 33.757812 29.832031 33.90625 29.773438 34.015625 29.671875 Z M 34.015625 29.671875 " fill-opacity="1" fill-rule="evenodd"/><path fill="#fbaf17" d="M 20.757812 30.078125 C 21.027344 30.085938 21.21875 30.292969 21.175781 30.539062 C 21.132812 30.789062 20.878906 30.984375 20.605469 30.976562 C 20.335938 30.96875 20.148438 30.761719 20.1875 30.511719 C 20.230469 30.265625 20.484375 30.070312 20.757812 30.078125 Z M 20.757812 30.078125 " fill-opacity="1" fill-rule="evenodd"/><path fill="#fdbe19" d="M 20.921875 30.894531 C 20.832031 30.949219 20.71875 30.980469 20.605469 30.976562 C 20.335938 30.96875 20.148438 30.761719 20.191406 30.511719 C 20.199219 30.453125 20.21875 30.394531 20.253906 30.34375 C 20.34375 30.289062 20.457031 30.257812 20.570312 30.261719 C 20.839844 30.269531 21.027344 30.476562 20.984375 30.722656 C 20.976562 30.785156 20.957031 30.839844 20.921875 30.894531 Z M 20.921875 30.894531 " fill-opacity="1" fill-rule="evenodd"/><path fill="#fefefe" d="M 21.023438 30.816406 C 20.914062 30.933594 20.753906 31.007812 20.582031 31.003906 C 20.308594 30.996094 20.125 30.785156 20.164062 30.535156 C 20.183594 30.433594 20.238281 30.335938 20.320312 30.261719 C 20.25 30.332031 20.207031 30.417969 20.191406 30.511719 C 20.148438 30.761719 20.335938 30.96875 20.609375 30.976562 C 20.765625 30.980469 20.914062 30.917969 21.023438 30.816406 Z M 21.023438 30.816406 " fill-opacity="1" fill-rule="evenodd"/><path fill="#fbaf17" d="M 34.925781 23.488281 C 35.199219 23.496094 35.386719 23.703125 35.34375 23.953125 C 35.304688 24.199219 35.050781 24.394531 34.777344 24.386719 C 34.503906 24.378906 34.316406 24.171875 34.359375 23.921875 C 34.398438 23.675781 34.65625 23.480469 34.925781 23.488281 Z M 34.925781 23.488281 " fill-opacity="1" fill-rule="evenodd"/><path fill="#fdbe19" d="M 35.09375 24.300781 C 35 24.359375 34.890625 24.386719 34.777344 24.386719 C 34.503906 24.378906 34.316406 24.171875 34.359375 23.921875 C 34.371094 23.863281 34.394531 23.804688 34.421875 23.753906 C 34.515625 23.699219 34.625 23.667969 34.738281 23.671875 C 35.011719 23.679688 35.199219 23.886719 35.15625 24.132812 C 35.148438 24.195312 35.125 24.25 35.09375 24.300781 Z M 35.09375 24.300781 " fill-opacity="1" fill-rule="evenodd"/><path fill="#fefefe" d="M 35.195312 24.226562 C 35.085938 24.34375 34.921875 24.414062 34.753906 24.410156 C 34.480469 24.402344 34.292969 24.195312 34.335938 23.945312 C 34.351562 23.839844 34.410156 23.746094 34.488281 23.671875 C 34.421875 23.742188 34.375 23.828125 34.359375 23.921875 C 34.320312 24.171875 34.507812 24.378906 34.78125 24.386719 C 34.933594 24.390625 35.085938 24.328125 35.195312 24.226562 Z M 35.195312 24.226562 " fill-opacity="1" fill-rule="evenodd"/><path fill="#fbaf17" d="M 40.726562 18.050781 C 41 18.03125 41.183594 18.222656 41.144531 18.472656 C 41.101562 18.726562 40.851562 18.945312 40.574219 18.957031 C 40.300781 18.976562 40.117188 18.785156 40.15625 18.535156 C 40.199219 18.285156 40.453125 18.066406 40.726562 18.050781 Z M 40.726562 18.050781 " fill-opacity="1" fill-rule="evenodd"/><path fill="#fdbe19" d="M 40.890625 18.847656 C 40.800781 18.910156 40.6875 18.953125 40.574219 18.957031 C 40.300781 18.976562 40.117188 18.785156 40.15625 18.535156 C 40.167969 18.476562 40.191406 18.417969 40.222656 18.359375 C 40.316406 18.296875 40.421875 18.257812 40.535156 18.25 C 40.808594 18.234375 40.996094 18.421875 40.953125 18.671875 C 40.945312 18.734375 40.921875 18.792969 40.890625 18.847656 Z M 40.890625 18.847656 " fill-opacity="1" fill-rule="evenodd"/><path fill="#fefefe" d="M 40.992188 18.761719 C 40.882812 18.890625 40.71875 18.976562 40.550781 18.988281 C 40.277344 19.003906 40.089844 18.816406 40.132812 18.5625 C 40.152344 18.457031 40.207031 18.355469 40.285156 18.273438 C 40.21875 18.351562 40.175781 18.441406 40.160156 18.535156 C 40.117188 18.785156 40.304688 18.976562 40.578125 18.957031 C 40.734375 18.949219 40.882812 18.875 40.992188 18.761719 Z M 40.992188 18.761719 " fill-opacity="1" fill-rule="evenodd"/><path fill="#fbaf17" d="M 40.539062 24.113281 C 40.808594 24.070312 40.996094 24.242188 40.957031 24.496094 C 40.914062 24.753906 40.660156 24.996094 40.386719 25.042969 C 40.113281 25.085938 39.925781 24.917969 39.96875 24.660156 C 40.011719 24.402344 40.265625 24.160156 40.539062 24.113281 Z M 40.539062 24.113281 " fill-opacity="1" fill-rule="evenodd"/><path fill="#fdbe19" d="M 40.703125 24.898438 C 40.609375 24.96875 40.5 25.023438 40.386719 25.042969 C 40.117188 25.085938 39.925781 24.917969 39.96875 24.660156 C 39.980469 24.597656 40 24.535156 40.035156 24.480469 C 40.125 24.40625 40.238281 24.355469 40.347656 24.335938 C 40.621094 24.292969 40.808594 24.460938 40.765625 24.714844 C 40.753906 24.777344 40.734375 24.839844 40.703125 24.898438 Z M 40.703125 24.898438 " fill-opacity="1" fill-rule="evenodd"/><path fill="#fefefe" d="M 40.800781 24.804688 C 40.691406 24.941406 40.53125 25.046875 40.359375 25.074219 C 40.089844 25.117188 39.902344 24.949219 39.945312 24.6875 C 39.960938 24.582031 40.015625 24.476562 40.097656 24.386719 C 40.03125 24.46875 39.984375 24.5625 39.96875 24.660156 C 39.925781 24.917969 40.113281 25.085938 40.386719 25.042969 C 40.546875 25.015625 40.695312 24.925781 40.800781 24.804688 Z M 40.800781 24.804688 " fill-opacity="1" fill-rule="evenodd"/><path fill="#fbaf17" d="M 8.992188 19.503906 C 9.433594 19.703125 9.738281 20.167969 9.671875 20.542969 C 9.605469 20.917969 9.191406 21.0625 8.75 20.863281 C 8.304688 20.664062 8 20.199219 8.066406 19.820312 C 8.132812 19.445312 8.546875 19.304688 8.992188 19.503906 Z M 8.992188 19.503906 " fill-opacity="1" fill-rule="evenodd"/><path fill="#fdbe19" d="M 9.257812 20.9375 C 9.109375 20.964844 8.929688 20.941406 8.746094 20.859375 C 8.304688 20.660156 8 20.195312 8.066406 19.820312 C 8.082031 19.730469 8.117188 19.652344 8.171875 19.589844 C 8.320312 19.566406 8.5 19.589844 8.683594 19.671875 C 9.125 19.871094 9.429688 20.335938 9.363281 20.710938 C 9.34375 20.800781 9.3125 20.878906 9.257812 20.9375 Z M 9.257812 20.9375 " fill-opacity="1" fill-rule="evenodd"/><path fill="#fefefe" d="M 9.421875 20.886719 C 9.246094 21 8.980469 21.007812 8.707031 20.882812 C 8.261719 20.683594 7.957031 20.21875 8.027344 19.84375 C 8.054688 19.683594 8.144531 19.566406 8.277344 19.5 C 8.167969 19.570312 8.09375 19.675781 8.066406 19.820312 C 8 20.195312 8.304688 20.660156 8.75 20.859375 C 9 20.976562 9.246094 20.976562 9.421875 20.886719 Z M 9.421875 20.886719 " fill-opacity="1" fill-rule="evenodd"/><path fill="#fbaf17" d="M 5.984375 19.355469 C 6.195312 19.453125 6.339844 19.671875 6.308594 19.851562 C 6.277344 20.03125 6.078125 20.097656 5.867188 20.003906 C 5.65625 19.910156 5.511719 19.6875 5.542969 19.511719 C 5.574219 19.332031 5.773438 19.261719 5.984375 19.355469 Z M 5.984375 19.355469 " fill-opacity="1" fill-rule="evenodd"/><path fill="#fdbe19" d="M 6.113281 20.039062 C 6.039062 20.054688 5.957031 20.042969 5.867188 20.003906 C 5.65625 19.910156 5.511719 19.6875 5.542969 19.511719 C 5.550781 19.464844 5.566406 19.429688 5.59375 19.402344 C 5.664062 19.390625 5.75 19.398438 5.835938 19.4375 C 6.046875 19.535156 6.195312 19.753906 6.160156 19.929688 C 6.152344 19.972656 6.136719 20.011719 6.113281 20.039062 Z M 6.113281 20.039062 " fill-opacity="1" fill-rule="evenodd"/><path fill="#fefefe" d="M 6.1875 20.015625 C 6.105469 20.066406 5.980469 20.074219 5.847656 20.015625 C 5.636719 19.921875 5.492188 19.699219 5.523438 19.519531 C 5.539062 19.445312 5.582031 19.386719 5.640625 19.355469 C 5.589844 19.390625 5.554688 19.441406 5.542969 19.511719 C 5.511719 19.691406 5.65625 19.910156 5.867188 20.003906 C 5.988281 20.058594 6.109375 20.058594 6.1875 20.015625 Z M 6.1875 20.015625 " fill-opacity="1" fill-rule="evenodd"/><path fill="#fbaf17" d="M 8.1875 23.273438 C 8.398438 23.367188 8.542969 23.589844 8.511719 23.769531 C 8.480469 23.949219 8.28125 24.015625 8.070312 23.921875 C 7.859375 23.824219 7.714844 23.605469 7.746094 23.425781 C 7.78125 23.246094 7.976562 23.179688 8.1875 23.273438 Z M 8.1875 23.273438 " fill-opacity="1" fill-rule="evenodd"/><path fill="#fdbe19" d="M 8.316406 23.957031 C 8.242188 23.96875 8.160156 23.960938 8.070312 23.921875 C 7.863281 23.824219 7.71875 23.605469 7.746094 23.425781 C 7.753906 23.378906 7.773438 23.34375 7.800781 23.316406 C 7.871094 23.304688 7.953125 23.3125 8.042969 23.351562 C 8.253906 23.449219 8.398438 23.667969 8.367188 23.847656 C 8.359375 23.890625 8.339844 23.929688 8.316406 23.957031 Z M 8.316406 23.957031 " fill-opacity="1" fill-rule="evenodd"/><path fill="#fefefe" d="M 8.394531 23.929688 C 8.308594 23.988281 8.183594 23.988281 8.054688 23.929688 C 7.839844 23.835938 7.695312 23.613281 7.730469 23.433594 C 7.742188 23.359375 7.785156 23.304688 7.847656 23.273438 C 7.792969 23.304688 7.757812 23.355469 7.746094 23.425781 C 7.71875 23.605469 7.863281 23.824219 8.070312 23.921875 C 8.191406 23.976562 8.308594 23.976562 8.394531 23.929688 Z M 8.394531 23.929688 " fill-opacity="1" fill-rule="evenodd"/><path fill="#fbaf17" d="M 8.738281 26.246094 C 8.949219 26.339844 9.09375 26.5625 9.0625 26.742188 C 9.027344 26.921875 8.832031 26.992188 8.621094 26.894531 C 8.410156 26.800781 8.265625 26.582031 8.296875 26.402344 C 8.328125 26.222656 8.523438 26.152344 8.738281 26.246094 Z M 8.738281 26.246094 " fill-opacity="1" fill-rule="evenodd"/><path fill="#fdbe19" d="M 8.867188 26.933594 C 8.792969 26.945312 8.710938 26.933594 8.621094 26.894531 C 8.410156 26.800781 8.265625 26.578125 8.296875 26.398438 C 8.304688 26.355469 8.324219 26.320312 8.347656 26.289062 C 8.417969 26.277344 8.503906 26.289062 8.589844 26.328125 C 8.800781 26.421875 8.949219 26.644531 8.914062 26.824219 C 8.90625 26.867188 8.890625 26.902344 8.867188 26.933594 Z M 8.867188 26.933594 " fill-opacity="1" fill-rule="evenodd"/><path fill="#fefefe" d="M 8.941406 26.90625 C 8.859375 26.960938 8.730469 26.964844 8.601562 26.90625 C 8.390625 26.8125 8.25 26.589844 8.277344 26.410156 C 8.289062 26.335938 8.335938 26.277344 8.398438 26.246094 C 8.347656 26.28125 8.3125 26.332031 8.300781 26.402344 C 8.265625 26.582031 8.414062 26.800781 8.625 26.894531 C 8.742188 26.949219 8.859375 26.949219 8.941406 26.90625 Z M 8.941406 26.90625 " fill-opacity="1" fill-rule="evenodd"/><path fill="#fbaf17" d="M 6.109375 23.597656 C 6.425781 23.742188 6.644531 24.078125 6.597656 24.34375 C 6.550781 24.613281 6.25 24.714844 5.929688 24.574219 C 5.613281 24.429688 5.394531 24.097656 5.441406 23.828125 C 5.488281 23.558594 5.789062 23.457031 6.109375 23.597656 Z M 6.109375 23.597656 " fill-opacity="1" fill-rule="evenodd"/><path fill="#fdbe19" d="M 6.300781 24.632812 C 6.191406 24.652344 6.0625 24.632812 5.929688 24.574219 C 5.613281 24.429688 5.394531 24.097656 5.441406 23.828125 C 5.453125 23.761719 5.480469 23.707031 5.515625 23.664062 C 5.625 23.644531 5.753906 23.660156 5.886719 23.71875 C 6.207031 23.863281 6.421875 24.195312 6.375 24.46875 C 6.363281 24.535156 6.335938 24.585938 6.300781 24.632812 Z M 6.300781 24.632812 " fill-opacity="1" fill-rule="evenodd"/><path fill="#fefefe" d="M 6.417969 24.59375 C 6.289062 24.675781 6.101562 24.683594 5.902344 24.59375 C 5.582031 24.449219 5.363281 24.113281 5.414062 23.84375 C 5.433594 23.730469 5.5 23.644531 5.59375 23.597656 C 5.515625 23.648438 5.460938 23.722656 5.441406 23.828125 C 5.394531 24.097656 5.613281 24.429688 5.929688 24.574219 C 6.117188 24.660156 6.292969 24.660156 6.417969 24.59375 Z M 6.417969 24.59375 " fill-opacity="1" fill-rule="evenodd"/><path fill="#fefefe" d="M 37.050781 14.34375 C 37.316406 14.753906 37.003906 15.367188 36.351562 15.710938 C 35.695312 16.054688 34.945312 16 34.675781 15.589844 C 34.40625 15.179688 34.722656 14.566406 35.375 14.226562 C 36.027344 13.882812 36.777344 13.933594 37.050781 14.34375 Z M 37.050781 14.34375 " fill-opacity="1" fill-rule="evenodd"/><path fill="#fdbe19" d="M 37.144531 14.296875 C 37.417969 14.703125 37.101562 15.316406 36.449219 15.660156 C 35.792969 16.003906 35.046875 15.949219 34.773438 15.539062 C 34.507812 15.128906 34.820312 14.515625 35.472656 14.171875 C 36.125 13.828125 36.875 13.882812 37.144531 14.296875 Z M 37.144531 14.296875 " fill-opacity="1" fill-rule="evenodd"/><path fill="#ffce22" d="M 36.296875 15.730469 C 35.679688 15.996094 35.023438 15.917969 34.773438 15.539062 C 34.523438 15.160156 34.773438 14.609375 35.328125 14.253906 C 35.945312 13.992188 36.601562 14.070312 36.851562 14.445312 C 37.101562 14.828125 36.851562 15.378906 36.296875 15.730469 Z M 36.296875 15.730469 " fill-opacity="1" fill-rule="evenodd"/><path fill="#fefefe" d="M 33.074219 8.25 C 33.234375 8.496094 33.050781 8.859375 32.660156 9.0625 C 32.273438 9.265625 31.828125 9.234375 31.667969 8.988281 C 31.507812 8.746094 31.695312 8.382812 32.082031 8.179688 C 32.472656 7.976562 32.914062 8.007812 33.074219 8.25 Z M 33.074219 8.25 " fill-opacity="1" fill-rule="evenodd"/><path fill="#fdbe19" d="M 33.136719 8.222656 C 33.292969 8.464844 33.109375 8.824219 32.722656 9.03125 C 32.332031 9.234375 31.890625 9.203125 31.730469 8.957031 C 31.566406 8.714844 31.75 8.351562 32.140625 8.148438 C 32.53125 7.945312 32.972656 7.976562 33.136719 8.222656 Z M 33.136719 8.222656 " fill-opacity="1" fill-rule="evenodd"/><path fill="#ffce22" d="M 32.632812 9.074219 C 32.265625 9.226562 31.875 9.183594 31.730469 8.957031 C 31.582031 8.734375 31.726562 8.40625 32.054688 8.199219 C 32.421875 8.042969 32.808594 8.089844 32.957031 8.3125 C 33.105469 8.539062 32.957031 8.867188 32.632812 9.074219 Z M 32.632812 9.074219 " fill-opacity="1" fill-rule="evenodd"/><path fill="#fefefe" d="M 19.058594 7.140625 C 19.273438 7.464844 19.023438 7.953125 18.5 8.230469 C 17.976562 8.507812 17.378906 8.464844 17.160156 8.132812 C 16.945312 7.808594 17.195312 7.316406 17.71875 7.042969 C 18.246094 6.765625 18.84375 6.808594 19.058594 7.140625 Z M 19.058594 7.140625 " fill-opacity="1" fill-rule="evenodd"/><path fill="#fdbe19" d="M 19.136719 7.097656 C 19.355469 7.425781 19.105469 7.914062 18.582031 8.191406 C 18.058594 8.464844 17.457031 8.421875 17.242188 8.09375 C 17.023438 7.765625 17.273438 7.277344 17.796875 7 C 18.320312 6.726562 18.921875 6.769531 19.136719 7.097656 Z M 19.136719 7.097656 " fill-opacity="1" fill-rule="evenodd"/><path fill="#ffce22" d="M 18.457031 8.246094 C 17.96875 8.457031 17.441406 8.398438 17.242188 8.09375 C 17.042969 7.789062 17.238281 7.351562 17.683594 7.066406 C 18.175781 6.859375 18.703125 6.917969 18.902344 7.222656 C 19.101562 7.523438 18.902344 7.964844 18.457031 8.246094 Z M 18.457031 8.246094 " fill-opacity="1" fill-rule="evenodd"/><path fill="#fefefe" d="M 13.484375 13.515625 C 13.75 13.925781 13.4375 14.539062 12.785156 14.878906 C 12.128906 15.226562 11.378906 15.171875 11.109375 14.761719 C 10.839844 14.351562 11.152344 13.738281 11.808594 13.394531 C 12.464844 13.050781 13.210938 13.105469 13.484375 13.515625 Z M 13.484375 13.515625 " fill-opacity="1" fill-rule="evenodd"/><path fill="#fdbe19" d="M 13.582031 13.464844 C 13.847656 13.875 13.535156 14.488281 12.882812 14.832031 C 12.226562 15.175781 11.476562 15.121094 11.207031 14.710938 C 10.9375 14.300781 11.253906 13.6875 11.90625 13.34375 C 12.558594 13 13.308594 13.054688 13.582031 13.464844 Z M 13.582031 13.464844 " fill-opacity="1" fill-rule="evenodd"/><path fill="#ffce22" d="M 12.726562 14.902344 C 12.113281 15.164062 11.457031 15.089844 11.207031 14.710938 C 10.957031 14.332031 11.203125 13.78125 11.757812 13.429688 C 12.375 13.164062 13.035156 13.242188 13.285156 13.621094 C 13.53125 14 13.285156 14.550781 12.726562 14.902344 Z M 12.726562 14.902344 " fill-opacity="1" fill-rule="evenodd"/><path fill="#fefefe" d="M 28.261719 17.058594 C 28.53125 17.46875 28.21875 18.078125 27.566406 18.421875 C 26.910156 18.765625 26.160156 18.710938 25.890625 18.300781 C 25.621094 17.890625 25.9375 17.277344 26.589844 16.9375 C 27.242188 16.59375 27.996094 16.644531 28.261719 17.058594 Z M 28.261719 17.058594 " fill-opacity="1" fill-rule="evenodd"/><path fill="#fdbe19" d="M 28.359375 17.003906 C 28.632812 17.414062 28.316406 18.027344 27.664062 18.371094 C 27.007812 18.714844 26.261719 18.660156 25.988281 18.25 C 25.722656 17.839844 26.03125 17.226562 26.6875 16.882812 C 27.34375 16.539062 28.089844 16.59375 28.359375 17.003906 Z M 28.359375 17.003906 " fill-opacity="1" fill-rule="evenodd"/><path fill="#ffce22" d="M 27.511719 18.445312 C 26.894531 18.707031 26.238281 18.628906 25.988281 18.25 C 25.738281 17.871094 25.988281 17.320312 26.542969 16.96875 C 27.15625 16.707031 27.8125 16.78125 28.066406 17.160156 C 28.316406 17.539062 28.066406 18.089844 27.511719 18.445312 Z M 27.511719 18.445312 " fill-opacity="1" fill-rule="evenodd"/><path fill="#fefefe" d="M 27.730469 10.375 C 27.949219 10.707031 27.699219 11.195312 27.175781 11.472656 C 26.652344 11.746094 26.050781 11.703125 25.835938 11.375 C 25.621094 11.042969 25.867188 10.558594 26.390625 10.28125 C 26.914062 10.003906 27.515625 10.050781 27.730469 10.375 Z M 27.730469 10.375 " fill-opacity="1" fill-rule="evenodd"/><path fill="#fdbe19" d="M 27.8125 10.335938 C 28.027344 10.664062 27.777344 11.15625 27.253906 11.429688 C 26.730469 11.703125 26.128906 11.660156 25.914062 11.332031 C 25.695312 11.003906 25.949219 10.511719 26.472656 10.238281 C 26.996094 9.964844 27.597656 10.007812 27.8125 10.335938 Z M 27.8125 10.335938 " fill-opacity="1" fill-rule="evenodd"/><path fill="#ffce22" d="M 27.128906 11.484375 C 26.640625 11.695312 26.113281 11.636719 25.914062 11.332031 C 25.714844 11.027344 25.910156 10.585938 26.355469 10.304688 C 26.851562 10.097656 27.378906 10.15625 27.578125 10.460938 C 27.773438 10.765625 27.574219 11.203125 27.128906 11.484375 Z M 27.128906 11.484375 " fill-opacity="1" fill-rule="evenodd"/><path fill="#fefefe" d="M 9.914062 9.382812 C 10.128906 9.710938 9.878906 10.199219 9.355469 10.476562 C 8.832031 10.75 8.230469 10.707031 8.015625 10.382812 C 7.800781 10.050781 8.050781 9.5625 8.574219 9.285156 C 9.097656 9.011719 9.699219 9.054688 9.914062 9.382812 Z M 9.914062 9.382812 " fill-opacity="1" fill-rule="evenodd"/><path fill="#fdbe19" d="M 9.992188 9.34375 C 10.207031 9.671875 9.957031 10.160156 9.433594 10.4375 C 8.910156 10.710938 8.308594 10.667969 8.09375 10.339844 C 7.878906 10.011719 8.128906 9.523438 8.652344 9.246094 C 9.179688 8.96875 9.777344 9.011719 9.992188 9.34375 Z M 9.992188 9.34375 " fill-opacity="1" fill-rule="evenodd"/><path fill="#ffce22" d="M 9.3125 10.492188 C 8.820312 10.703125 8.292969 10.640625 8.09375 10.339844 C 7.894531 10.035156 8.09375 9.59375 8.539062 9.3125 C 9.027344 9.101562 9.554688 9.164062 9.753906 9.464844 C 9.953125 9.769531 9.757812 10.210938 9.3125 10.492188 Z M 9.3125 10.492188 " fill-opacity="1" fill-rule="evenodd"/><path fill="#fefefe" d="M 19.65625 11.539062 C 19.761719 11.707031 19.636719 11.953125 19.371094 12.09375 C 19.105469 12.234375 18.804688 12.210938 18.695312 12.042969 C 18.585938 11.878906 18.714844 11.628906 18.976562 11.492188 C 19.242188 11.351562 19.546875 11.371094 19.65625 11.539062 Z M 19.65625 11.539062 " fill-opacity="1" fill-rule="evenodd"/><path fill="#fdbe19" d="M 19.695312 11.515625 C 19.804688 11.683594 19.675781 11.933594 19.414062 12.070312 C 19.148438 12.210938 18.84375 12.1875 18.734375 12.019531 C 18.625 11.855469 18.75 11.609375 19.015625 11.46875 C 19.28125 11.332031 19.585938 11.351562 19.695312 11.515625 Z M 19.695312 11.515625 " fill-opacity="1" fill-rule="evenodd"/><path fill="#ffce22" d="M 19.351562 12.101562 C 19.101562 12.207031 18.835938 12.175781 18.734375 12.023438 C 18.636719 11.871094 18.734375 11.648438 18.960938 11.503906 C 19.210938 11.394531 19.476562 11.429688 19.574219 11.582031 C 19.675781 11.734375 19.574219 11.957031 19.351562 12.101562 Z M 19.351562 12.101562 " fill-opacity="1" fill-rule="evenodd"/><path fill="#fefefe" d="M 30.921875 14.507812 C 31.03125 14.675781 30.90625 14.921875 30.640625 15.0625 C 30.375 15.199219 30.070312 15.179688 29.964844 15.011719 C 29.855469 14.847656 29.980469 14.597656 30.246094 14.460938 C 30.507812 14.320312 30.8125 14.339844 30.921875 14.507812 Z M 30.921875 14.507812 " fill-opacity="1" fill-rule="evenodd"/><path fill="#fdbe19" d="M 30.960938 14.488281 C 31.070312 14.65625 30.945312 14.902344 30.679688 15.039062 C 30.414062 15.179688 30.109375 15.15625 30 14.992188 C 29.890625 14.824219 30.019531 14.578125 30.28125 14.4375 C 30.550781 14.300781 30.851562 14.320312 30.960938 14.488281 Z M 30.960938 14.488281 " fill-opacity="1" fill-rule="evenodd"/><path fill="#ffce22" d="M 30.621094 15.070312 C 30.367188 15.175781 30.101562 15.144531 30 14.992188 C 29.902344 14.835938 30 14.617188 30.226562 14.472656 C 30.476562 14.363281 30.742188 14.398438 30.84375 14.550781 C 30.945312 14.703125 30.84375 14.925781 30.621094 15.070312 Z M 30.621094 15.070312 " fill-opacity="1" fill-rule="evenodd"/><path fill="#fefefe" d="M 25.019531 5.671875 C 25.128906 5.839844 25 6.089844 24.738281 6.226562 C 24.472656 6.367188 24.167969 6.34375 24.058594 6.179688 C 23.949219 6.011719 24.074219 5.765625 24.339844 5.625 C 24.605469 5.488281 24.910156 5.507812 25.019531 5.671875 Z M 25.019531 5.671875 " fill-opacity="1" fill-rule="evenodd"/><path fill="#fdbe19" d="M 25.058594 5.652344 C 25.167969 5.820312 25.042969 6.066406 24.777344 6.207031 C 24.511719 6.347656 24.210938 6.324219 24.101562 6.160156 C 23.992188 5.992188 24.117188 5.746094 24.382812 5.605469 C 24.644531 5.464844 24.949219 5.488281 25.058594 5.652344 Z M 25.058594 5.652344 " fill-opacity="1" fill-rule="evenodd"/><path fill="#ffce22" d="M 24.714844 6.234375 C 24.464844 6.34375 24.199219 6.3125 24.097656 6.160156 C 23.996094 6.007812 24.097656 5.78125 24.324219 5.636719 C 24.570312 5.535156 24.839844 5.5625 24.941406 5.71875 C 25.039062 5.871094 24.941406 6.09375 24.714844 6.234375 Z M 24.714844 6.234375 " fill-opacity="1" fill-rule="evenodd"/><path fill="#fefefe" d="M 39.347656 10.191406 C 39.457031 10.359375 39.332031 10.609375 39.066406 10.746094 C 38.800781 10.886719 38.496094 10.863281 38.386719 10.695312 C 38.277344 10.53125 38.40625 10.285156 38.671875 10.144531 C 38.933594 10.003906 39.238281 10.027344 39.347656 10.191406 Z M 39.347656 10.191406 " fill-opacity="1" fill-rule="evenodd"/><path fill="#fdbe19" d="M 39.386719 10.171875 C 39.5 10.335938 39.371094 10.585938 39.105469 10.722656 C 38.839844 10.863281 38.535156 10.839844 38.425781 10.675781 C 38.320312 10.511719 38.445312 10.261719 38.710938 10.121094 C 38.976562 9.984375 39.277344 10.003906 39.386719 10.171875 Z M 39.386719 10.171875 " fill-opacity="1" fill-rule="evenodd"/><path fill="#ffce22" d="M 39.046875 10.757812 C 38.792969 10.863281 38.53125 10.832031 38.429688 10.675781 C 38.328125 10.523438 38.429688 10.300781 38.652344 10.15625 C 38.90625 10.050781 39.167969 10.082031 39.269531 10.234375 C 39.371094 10.386719 39.269531 10.613281 39.046875 10.757812 Z M 39.046875 10.757812 " fill-opacity="1" fill-rule="evenodd"/><path fill="#fefefe" d="M 23.164062 18.773438 C 23.273438 18.941406 23.148438 19.1875 22.882812 19.328125 C 22.617188 19.464844 22.3125 19.445312 22.203125 19.277344 C 22.09375 19.109375 22.222656 18.863281 22.488281 18.726562 C 22.753906 18.585938 23.054688 18.609375 23.164062 18.773438 Z M 23.164062 18.773438 " fill-opacity="1" fill-rule="evenodd"/><path fill="#fdbe19" d="M 23.207031 18.753906 C 23.316406 18.921875 23.1875 19.167969 22.921875 19.308594 C 22.65625 19.445312 22.355469 19.425781 22.246094 19.257812 C 22.136719 19.09375 22.265625 18.84375 22.527344 18.707031 C 22.792969 18.566406 23.097656 18.585938 23.207031 18.753906 Z M 23.207031 18.753906 " fill-opacity="1" fill-rule="evenodd"/><path fill="#ffce22" d="M 22.859375 19.335938 C 22.613281 19.441406 22.34375 19.410156 22.246094 19.257812 C 22.140625 19.101562 22.246094 18.882812 22.46875 18.738281 C 22.71875 18.628906 22.984375 18.664062 23.085938 18.8125 C 23.1875 18.96875 23.085938 19.191406 22.859375 19.335938 Z M 22.859375 19.335938 " fill-opacity="1" fill-rule="evenodd"/><path fill="#fefefe" d="M 14.71875 9.964844 C 14.828125 10.128906 14.703125 10.375 14.4375 10.515625 C 14.175781 10.65625 13.871094 10.632812 13.761719 10.46875 C 13.648438 10.300781 13.777344 10.054688 14.042969 9.914062 C 14.304688 9.773438 14.609375 9.796875 14.71875 9.964844 Z M 14.71875 9.964844 " fill-opacity="1" fill-rule="evenodd"/><path fill="#fdbe19" d="M 14.757812 9.941406 C 14.867188 10.109375 14.742188 10.355469 14.476562 10.496094 C 14.210938 10.632812 13.90625 10.613281 13.800781 10.445312 C 13.691406 10.277344 13.816406 10.03125 14.082031 9.894531 C 14.347656 9.753906 14.648438 9.777344 14.757812 9.941406 Z M 14.757812 9.941406 " fill-opacity="1" fill-rule="evenodd"/><path fill="#ffce22" d="M 14.414062 10.523438 C 14.164062 10.632812 13.898438 10.601562 13.800781 10.449219 C 13.699219 10.292969 13.796875 10.070312 14.023438 9.925781 C 14.273438 9.820312 14.539062 9.851562 14.640625 10.003906 C 14.738281 10.160156 14.640625 10.382812 14.414062 10.523438 Z M 14.414062 10.523438 " fill-opacity="1" fill-rule="evenodd"/></svg>