<svg xmlns="http://www.w3.org/2000/svg" xmlns:xlink="http://www.w3.org/1999/xlink" width="180" zoomAndPan="magnify" viewBox="0 0 135 44.999999" height="60" preserveAspectRatio="xMidYMid meet" version="1.0"><defs><g/><clipPath id="04063522c1"><path d="M 8 5.941406 L 42.03125 5.941406 L 42.03125 31 L 8 31 Z M 8 5.941406 " clip-rule="nonzero"/></clipPath><clipPath id="56f203b555"><path d="M 7 22 L 41 22 L 41 36.691406 L 7 36.691406 Z M 7 22 " clip-rule="nonzero"/></clipPath></defs><g fill="#000000" fill-opacity="1"><g transform="translate(44.730853, 31.546179)"><g><path d="M 17.671875 -19.3125 L 17.3125 -19.25 L 16.890625 -19.3125 L 16.53125 -19.25 L 15.671875 -19.3125 L 15.28125 -19.28125 L 14.859375 -19.3125 L 14.53125 -19.3125 L 14.078125 -19.25 L 12.859375 -19.25 L 12.53125 -19.3125 L 12.140625 -19.25 L 11.265625 -19.3125 L 10.890625 -19.28125 L 10.4375 -19.25 L 10.140625 -19.3125 L 9.234375 -19.3125 L 8.71875 -18.921875 L 8.71875 -18.515625 L 8.53125 -18.15625 L 8.40625 -17.734375 L 8.328125 -17.40625 L 8.203125 -17.046875 L 8.109375 -16.640625 L 7.921875 -16.28125 L 7.90625 -15.890625 L 7.75 -15.5625 L 7.6875 -15.1875 L 7.53125 -14.765625 L 7.46875 -14.40625 L 7.296875 -14.078125 L 7.171875 -13.65625 L 7.140625 -13.34375 L 7.015625 -12.984375 L 6.90625 -12.5625 L 6.6875 -12.171875 L 6.65625 -11.796875 L 6.9375 -11.5 L 7.296875 -11.5 L 7.65625 -11.4375 L 8.078125 -11.4375 L 8.40625 -11.5 L 8.875 -11.4375 L 9.265625 -11.5 L 9.625 -11.46875 L 9.984375 -11.5 L 10.40625 -11.4375 L 10.75 -11.46875 L 11.140625 -11.5 L 11.890625 -11.5 L 12.34375 -11.46875 L 12.734375 -11.5 L 13.46875 -11.5 L 13.828125 -11.46875 L 14.1875 -11.5 L 14.59375 -11.46875 L 14.890625 -11.109375 L 14.828125 -10.65625 L 14.703125 -10.328125 L 14.53125 -9.859375 L 14.078125 -9.53125 L 13.65625 -9.5625 L 12.828125 -9.5625 L 12.4375 -9.5 L 11.75 -9.5 L 11.28125 -9.5625 L 10.953125 -9.53125 L 10.625 -9.53125 L 10.203125 -9.5 L 9.84375 -9.53125 L 9.4375 -9.5625 L 9.078125 -9.5 L 8.625 -9.5625 L 8.265625 -9.53125 L 7.078125 -9.53125 L 6.75 -9.5625 L 6.328125 -9.5625 L 5.8125 -9.140625 L 5.65625 -8.75 L 5.65625 -8.359375 L 5.515625 -7.953125 L 5.421875 -7.65625 L 5.203125 -7.234375 L 5.109375 -6.875 L 5.03125 -6.5 L 4.875 -6.078125 L 4.8125 -5.71875 L 4.65625 -5.359375 L 4.59375 -4.9375 L 4.484375 -4.59375 L 4.390625 -4.140625 L 4.203125 -3.84375 L 4.109375 -3.453125 L 3.96875 -3 L 3.90625 -2.65625 L 3.71875 -2.234375 L 3.609375 -1.875 L 3.515625 -1.546875 L 3.453125 -1.15625 L 3.359375 -0.78125 L 3.203125 -0.328125 L 2.609375 0.03125 L 2.265625 -0.03125 L 1.71875 0.0625 L 1.390625 -0.03125 L 1.03125 -0.359375 L 1.203125 -0.71875 L 1.203125 -1.09375 L 1.421875 -1.515625 L 1.453125 -1.875 L 1.640625 -2.234375 L 1.75 -2.640625 L 1.875 -3 L 1.9375 -3.421875 L 2.09375 -3.78125 L 2.203125 -4.171875 L 2.296875 -4.515625 L 2.421875 -4.90625 L 2.578125 -5.296875 L 2.6875 -5.6875 L 2.71875 -6.015625 L 2.84375 -6.421875 L 2.9375 -6.78125 L 3.09375 -7.203125 L 3.140625 -7.5625 L 3.359375 -7.921875 L 3.421875 -8.296875 L 3.578125 -8.65625 L 3.65625 -9.046875 L 3.75 -9.40625 L 3.90625 -9.8125 L 4 -10.171875 L 4.171875 -10.5625 L 4.171875 -10.921875 L 4.359375 -11.34375 L 4.453125 -11.75 L 4.59375 -12.140625 L 4.65625 -12.46875 L 4.78125 -12.859375 L 4.9375 -13.21875 L 5.046875 -13.65625 L 5.171875 -13.984375 L 5.203125 -14.34375 L 5.390625 -14.734375 L 5.515625 -15.15625 L 5.5625 -15.5 L 5.71875 -15.921875 L 5.875 -16.28125 L 5.9375 -16.609375 L 6.015625 -17.015625 L 6.203125 -17.375 L 6.296875 -17.796875 L 6.390625 -18.125 L 6.484375 -18.515625 L 6.65625 -18.921875 L 6.78125 -19.25 L 6.8125 -19.640625 L 7.015625 -20.03125 L 7.015625 -20.40625 L 7.203125 -20.828125 L 7.71875 -21.1875 L 8.140625 -21.15625 L 8.46875 -21.1875 L 10.8125 -21.1875 L 11.203125 -21.21875 L 11.625 -21.15625 L 11.984375 -21.21875 L 12.40625 -21.1875 L 13.984375 -21.1875 L 14.375 -21.15625 L 14.703125 -21.15625 L 15.15625 -21.1875 L 15.53125 -21.15625 L 16.375 -21.15625 L 16.734375 -21.21875 L 17.0625 -21.1875 L 17.546875 -21.15625 L 17.859375 -21.21875 L 18.34375 -21.21875 L 18.515625 -20.828125 L 18.4375 -20.421875 L 18.28125 -20 L 18.15625 -19.671875 Z M 17.671875 -19.3125 "/></g></g></g><g fill="#000000" fill-opacity="1"><g transform="translate(59.676258, 31.546179)"><g><path d="M -0.0625 -0.390625 L 0.09375 -0.75 L 0.21875 -1.15625 L 0.265625 -1.546875 L 0.453125 -1.9375 L 0.484375 -2.328125 L 0.578125 -2.65625 L 0.703125 -3.03125 L 0.75 -3.421875 L 0.875 -3.84375 L 1.03125 -4.203125 L 1.09375 -4.59375 L 1.15625 -4.96875 L 1.265625 -5.359375 L 1.390625 -5.75 L 1.484375 -6.140625 L 1.546875 -6.5 L 1.75 -6.90625 L 1.78125 -7.265625 L 1.9375 -7.71875 L 2.0625 -8.078125 L 2.09375 -8.40625 L 2.203125 -8.84375 L 2.296875 -9.234375 L 2.359375 -9.5625 L 2.546875 -10.015625 L 2.546875 -10.40625 L 2.71875 -10.8125 L 2.75 -11.171875 L 2.84375 -11.53125 L 3.03125 -11.921875 L 3.09375 -12.3125 L 3.140625 -12.6875 L 3.296875 -13.046875 L 3.84375 -13.4375 L 4.234375 -13.46875 L 4.6875 -13.46875 L 5.046875 -13.046875 L 4.9375 -12.625 L 4.84375 -12.28125 L 4.75 -11.828125 L 4.6875 -11.5 L 4.65625 -11.015625 L 4.546875 -10.625 L 4.390625 -10.296875 L 4.296875 -9.890625 L 4.203125 -9.46875 L 4.171875 -9.109375 L 4.390625 -9.4375 L 4.65625 -9.75 L 4.78125 -10.140625 L 5.046875 -10.5 L 5.265625 -10.828125 L 5.484375 -11.203125 L 5.71875 -11.46875 L 5.96875 -11.859375 L 6.171875 -12.140625 L 6.5 -12.4375 L 6.6875 -12.734375 L 7.078125 -13.046875 L 7.421875 -13.25 L 7.71875 -13.5 L 8.046875 -13.6875 L 8.40625 -13.796875 L 8.875 -13.921875 L 9.5625 -13.890625 L 9.953125 -13.796875 L 10.375 -13.65625 L 10.6875 -13.40625 L 10.921875 -13.171875 L 11.203125 -12.765625 L 11.375 -12.4375 L 11.46875 -12.078125 L 11.53125 -11.71875 L 11.5625 -11.34375 L 11.65625 -10.53125 L 11.53125 -10.109375 L 11.53125 -9.75 L 11.015625 -9.328125 L 10.65625 -9.328125 L 10.296875 -9.375 L 9.890625 -9.375 L 9.625 -9.6875 L 9.75 -10.109375 L 9.75 -10.890625 L 9.65625 -11.234375 L 9.40625 -11.5 L 9.171875 -11.796875 L 8.84375 -11.921875 L 8.171875 -11.984375 L 7.875 -11.890625 L 7.53125 -11.71875 L 7.359375 -11.46875 L 7.015625 -11.265625 L 6.453125 -10.71875 L 6.265625 -10.40625 L 6.078125 -10.015625 L 5.78125 -9.6875 L 5.65625 -9.359375 L 5.453125 -9.015625 L 5.140625 -8.71875 L 5.03125 -8.296875 L 4.8125 -7.984375 L 4.59375 -7.59375 L 4.421875 -7.265625 L 4.328125 -6.84375 L 4.140625 -6.484375 L 4 -6.078125 L 3.8125 -5.71875 L 3.625 -5.328125 L 3.515625 -5 L 3.390625 -4.5625 L 3.171875 -4.203125 L 3.125 -3.875 L 3 -3.484375 L 2.78125 -3.125 L 2.65625 -2.6875 L 2.609375 -2.296875 L 2.484375 -1.9375 L 2.296875 -1.515625 L 2.203125 -1.15625 L 2.125 -0.78125 L 1.90625 -0.390625 L 1.390625 -0.03125 L 1 -0.03125 L 0.640625 0.0625 L 0.328125 0.0625 Z M -0.0625 -0.390625 "/></g></g></g><g fill="#000000" fill-opacity="1"><g transform="translate(71.172722, 31.546179)"><g><path d="M 6.328125 0.484375 L 5.9375 0.421875 L 5.484375 0.421875 L 5.140625 0.234375 L 4.75 0.1875 L 4.421875 -0.03125 L 4 -0.21875 L 3.71875 -0.421875 L 3.359375 -0.671875 L 3.140625 -0.90625 L 2.78125 -1.15625 L 2.578125 -1.515625 L 2.359375 -1.8125 L 2.203125 -2.171875 L 2.0625 -2.515625 L 1.90625 -2.875 L 1.6875 -3.265625 L 1.671875 -3.625 L 1.546875 -4.0625 L 1.515625 -4.484375 L 1.546875 -4.84375 L 1.546875 -6.484375 L 1.609375 -6.84375 L 1.671875 -7.234375 L 1.8125 -7.59375 L 1.9375 -7.984375 L 1.96875 -8.390625 L 2.09375 -8.71875 L 2.296875 -9.140625 L 2.484375 -9.4375 L 2.609375 -9.8125 L 2.84375 -10.171875 L 3.0625 -10.53125 L 3.234375 -10.890625 L 3.421875 -11.203125 L 3.65625 -11.46875 L 3.96875 -11.75 L 4.265625 -12.078125 L 4.546875 -12.375 L 4.78125 -12.5625 L 5.109375 -12.828125 L 5.453125 -13.078125 L 5.84375 -13.21875 L 6.171875 -13.40625 L 6.53125 -13.5625 L 6.875 -13.65625 L 7.265625 -13.734375 L 7.65625 -13.796875 L 8.109375 -13.890625 L 8.921875 -13.890625 L 9.234375 -13.828125 L 9.71875 -13.734375 L 10.015625 -13.59375 L 10.375 -13.46875 L 10.75 -13.21875 L 11.078125 -13.046875 L 11.28125 -12.734375 L 11.5625 -12.40625 L 11.71875 -12.078125 L 11.890625 -11.765625 L 11.921875 -11.375 L 12.046875 -10.953125 L 12.046875 -10.171875 L 11.953125 -9.78125 L 11.921875 -9.375 L 11.796875 -9.015625 L 11.59375 -8.6875 L 11.4375 -8.359375 L 11.171875 -8.015625 L 10.921875 -7.75 L 10.59375 -7.5 L 10.375 -7.171875 L 9.984375 -6.9375 L 9.6875 -6.78125 L 9.328125 -6.5 L 8.953125 -6.359375 L 8.625 -6.171875 L 8.296875 -6.015625 L 7.875 -5.84375 L 7.5 -5.75 L 7.078125 -5.625 L 6.71875 -5.484375 L 5.9375 -5.359375 L 5.59375 -5.234375 L 5.140625 -5.171875 L 4.71875 -5.171875 L 4.328125 -5.140625 L 4 -5.046875 L 3.625 -4.6875 L 3.625 -4.234375 L 3.78125 -3.90625 L 3.84375 -3.515625 L 4.03125 -3.140625 L 4.265625 -2.75 L 4.515625 -2.421875 L 4.71875 -2.171875 L 5.078125 -1.9375 L 5.484375 -1.6875 L 5.78125 -1.546875 L 6.171875 -1.421875 L 6.625 -1.359375 L 7.296875 -1.421875 L 7.78125 -1.453125 L 8.140625 -1.484375 L 8.46875 -1.578125 L 8.8125 -1.609375 L 9.171875 -1.75 L 9.53125 -1.875 L 9.859375 -2.03125 L 10.203125 -2.203125 L 10.65625 -2.328125 L 10.921875 -2.609375 L 11.234375 -2.78125 L 11.5625 -3 L 11.828125 -3.265625 L 12.171875 -3.515625 L 12.5 -3.84375 L 12.71875 -4.140625 L 13.015625 -4.390625 L 13.28125 -4.6875 L 13.4375 -5.03125 L 13.703125 -5.421875 L 13.921875 -5.6875 L 14.140625 -6.015625 L 14.34375 -6.390625 L 14.5625 -6.78125 L 15.078125 -6.875 L 15.375 -6.65625 L 15.5625 -6.015625 L 15.375 -5.6875 L 15.125 -5.390625 L 14.953125 -5.046875 L 14.796875 -4.71875 L 14.5625 -4.421875 L 14.3125 -4.03125 L 14.140625 -3.71875 L 13.890625 -3.421875 L 13.6875 -3.09375 L 13.34375 -2.875 L 13.171875 -2.515625 L 12.796875 -2.296875 L 12.53125 -1.96875 L 11.984375 -1.421875 L 11.71875 -1.1875 L 11.375 -1 L 11.046875 -0.71875 L 10.75 -0.609375 L 10.40625 -0.359375 L 10.046875 -0.21875 L 9.6875 -0.03125 L 9.265625 0.09375 L 8.890625 0.1875 L 8.265625 0.390625 L 7.875 0.453125 L 7.390625 0.421875 L 7.078125 0.453125 Z M 3.9375 -6.453125 L 4.328125 -6.53125 L 5.171875 -6.59375 L 5.484375 -6.71875 L 5.9375 -6.78125 L 6.265625 -6.84375 L 6.71875 -6.9375 L 7.015625 -7.078125 L 7.421875 -7.234375 L 7.8125 -7.421875 L 8.140625 -7.625 L 8.4375 -7.78125 L 8.8125 -8.015625 L 9.140625 -8.328125 L 9.375 -8.5625 L 9.6875 -8.84375 L 9.84375 -9.203125 L 9.953125 -9.59375 L 10.140625 -9.921875 L 10.109375 -10.71875 L 9.984375 -11.109375 L 9.6875 -11.40625 L 9.46875 -11.65625 L 9.015625 -11.890625 L 8.65625 -11.921875 L 7.921875 -11.953125 L 7.078125 -11.796875 L 6.78125 -11.65625 L 6.484375 -11.46875 L 6.109375 -11.265625 L 5.75 -10.984375 L 5.484375 -10.6875 L 5.234375 -10.4375 L 5.03125 -10.109375 L 4.78125 -9.84375 L 4.546875 -9.46875 L 4.328125 -9.140625 L 4.140625 -8.71875 L 4.0625 -8.359375 L 3.9375 -8.046875 L 3.8125 -7.625 L 3.71875 -7.203125 L 3.65625 -6.8125 Z M 3.9375 -6.453125 "/></g></g></g><g fill="#000000" fill-opacity="1"><g transform="translate(84.060861, 31.546179)"><g><path d="M 5.359375 0.390625 L 5 0.328125 L 4.59375 0.296875 L 4.234375 0.1875 L 3.875 0.09375 L 3.484375 -0.03125 L 3.140625 -0.234375 L 2.75 -0.421875 L 2.484375 -0.609375 L 2.09375 -0.84375 L 1.75 -1.03125 L 1.6875 -1.578125 L 1.875 -1.875 L 2.125 -2.203125 L 2.359375 -2.546875 L 2.84375 -2.609375 L 3.234375 -2.359375 L 3.578125 -2.09375 L 3.90625 -1.90625 L 4.265625 -1.78125 L 5.359375 -1.453125 L 5.8125 -1.390625 L 6.53125 -1.390625 L 6.96875 -1.421875 L 7.296875 -1.484375 L 7.71875 -1.640625 L 8.046875 -1.78125 L 8.328125 -2.0625 L 8.59375 -2.296875 L 8.875 -2.640625 L 8.953125 -2.90625 L 9.046875 -3.328125 L 9.109375 -4.0625 L 8.890625 -4.484375 L 8.71875 -4.8125 L 8.4375 -5.046875 L 8.140625 -5.328125 L 7.875 -5.5625 L 7.5625 -5.8125 L 7.234375 -6.015625 L 6.90625 -6.171875 L 6.53125 -6.421875 L 6.140625 -6.59375 L 5.84375 -6.8125 L 5.484375 -7.078125 L 5.203125 -7.359375 L 4.875 -7.59375 L 4.65625 -7.875 L 4.453125 -8.171875 L 4.265625 -8.5 L 3.90625 -8.5 L 3.75 -8.171875 L 3.546875 -7.84375 L 3.359375 -7.5 L 3.234375 -7.171875 L 3 -6.84375 L 2.875 -6.5625 L 2.65625 -6.171875 L 2.515625 -5.875 L 1.9375 -5.8125 L 1.640625 -5.96875 L 1.453125 -6.5625 L 1.6875 -6.875 L 1.84375 -7.265625 L 2.09375 -7.59375 L 2.171875 -7.921875 L 2.421875 -8.328125 L 2.515625 -8.625 L 2.71875 -8.953125 L 2.875 -9.328125 L 3.125 -9.6875 L 3.265625 -10.109375 L 3.390625 -10.4375 L 3.609375 -10.75 L 3.71875 -11.171875 L 4.171875 -11.796875 L 4.328125 -12.203125 L 4.625 -12.4375 L 4.84375 -12.765625 L 5.171875 -13.015625 L 5.515625 -13.21875 L 5.78125 -13.40625 L 6.171875 -13.59375 L 6.5625 -13.6875 L 6.984375 -13.828125 L 7.328125 -13.859375 L 8.5625 -13.859375 L 8.953125 -13.890625 L 9.328125 -13.734375 L 9.75 -13.65625 L 10.078125 -13.5625 L 10.34375 -13.375 L 10.71875 -13.109375 L 10.953125 -12.921875 L 11.3125 -12.625 L 11.46875 -12.25 L 11.65625 -11.984375 L 11.765625 -11.59375 L 11.921875 -11.203125 L 12.015625 -10.859375 L 12.046875 -10.4375 L 11.5625 -10.109375 L 11.109375 -10.109375 L 10.71875 -10.078125 L 10.296875 -10.4375 L 10.203125 -10.859375 L 10.015625 -11.234375 L 9.78125 -11.53125 L 9.5625 -11.75 L 9.203125 -11.984375 L 8.8125 -12.140625 L 8.40625 -12.203125 L 7.6875 -12.203125 L 7.203125 -12.171875 L 6.875 -12.015625 L 6.5625 -11.828125 L 6.171875 -11.53125 L 6.015625 -11.203125 L 5.78125 -10.859375 L 5.65625 -10.46875 L 5.625 -9.75 L 5.8125 -9.375 L 6.015625 -9.015625 L 6.265625 -8.78125 L 6.453125 -8.4375 L 6.8125 -8.265625 L 7.140625 -8.015625 L 7.78125 -7.65625 L 8.109375 -7.390625 L 8.390625 -7.203125 L 8.71875 -7.015625 L 9.109375 -6.78125 L 9.359375 -6.53125 L 9.6875 -6.296875 L 9.984375 -6.078125 L 10.328125 -5.8125 L 10.5 -5.453125 L 10.71875 -5.171875 L 10.8125 -4.75 L 10.984375 -4.453125 L 11.046875 -4 L 10.984375 -3.265625 L 11.015625 -2.8125 L 10.921875 -2.421875 L 10.78125 -2.09375 L 10.59375 -1.71875 L 10.40625 -1.390625 L 10.171875 -1.125 L 9.859375 -0.8125 L 9.296875 -0.265625 L 8.875 -0.125 L 8.53125 0.0625 L 8.109375 0.21875 L 7.71875 0.265625 L 7.015625 0.421875 L 6.53125 0.484375 Z M 5.359375 0.390625 "/></g></g></g><g fill="#000000" fill-opacity="1"><g transform="translate(95.890126, 31.546179)"><g><path d="M 6.625 0.453125 L 6.234375 0.421875 L 5.90625 0.328125 L 5.484375 0.234375 L 4.6875 0.03125 L 4.359375 -0.1875 L 4.03125 -0.359375 L 3.6875 -0.609375 L 3.421875 -0.8125 L 3.125 -1.125 L 2.8125 -1.390625 L 2.609375 -1.75 L 2.390625 -2.03125 L 2.171875 -2.390625 L 2.125 -2.78125 L 1.90625 -3.140625 L 1.75 -3.546875 L 1.671875 -3.84375 L 1.640625 -4.265625 L 1.578125 -4.65625 L 1.578125 -5.046875 L 1.609375 -5.875 L 1.578125 -6.203125 L 1.671875 -6.65625 L 1.6875 -7.046875 L 1.75 -7.453125 L 1.8125 -7.78125 L 1.96875 -8.203125 L 2.0625 -8.5625 L 2.15625 -8.890625 L 2.390625 -9.296875 L 2.484375 -9.59375 L 2.65625 -9.984375 L 2.90625 -10.328125 L 3.0625 -10.6875 L 3.296875 -10.921875 L 3.578125 -11.28125 L 3.78125 -11.59375 L 4.078125 -11.859375 L 4.328125 -12.109375 L 4.65625 -12.375 L 5.171875 -12.890625 L 5.59375 -13.109375 L 5.90625 -13.28125 L 6.203125 -13.40625 L 6.59375 -13.625 L 6.984375 -13.65625 L 7.328125 -13.796875 L 7.6875 -13.890625 L 8.109375 -13.890625 L 8.875 -13.921875 L 9.328125 -13.859375 L 9.6875 -13.734375 L 10.171875 -13.625 L 10.5 -13.4375 L 10.78125 -13.21875 L 11.171875 -12.984375 L 11.4375 -12.734375 L 11.71875 -12.40625 L 11.828125 -12.046875 L 11.953125 -11.6875 L 12.046875 -11.265625 L 12.109375 -10.859375 L 12.109375 -9.625 L 11.59375 -9.234375 L 11.109375 -9.234375 L 10.75 -9.203125 L 10.296875 -9.6875 L 10.328125 -10.53125 L 10.171875 -10.890625 L 10.078125 -11.203125 L 9.78125 -11.53125 L 9.4375 -11.765625 L 9.078125 -11.921875 L 8.78125 -12.015625 L 7.5 -11.953125 L 7.203125 -11.828125 L 6.8125 -11.6875 L 6.484375 -11.46875 L 6.171875 -11.234375 L 5.84375 -11.046875 L 5.515625 -10.78125 L 5.203125 -10.40625 L 4.96875 -10.109375 L 4.8125 -9.8125 L 4.546875 -9.46875 L 4.390625 -9.109375 L 4.171875 -8.75 L 4 -8.328125 L 3.9375 -7.953125 L 3.78125 -7.625 L 3.75 -7.203125 L 3.6875 -6.78125 L 3.578125 -6.421875 L 3.546875 -5.96875 L 3.546875 -5.140625 L 3.609375 -4.75 L 3.625 -4.390625 L 3.78125 -4.0625 L 3.90625 -3.65625 L 4.078125 -3.296875 L 4.203125 -2.9375 L 4.546875 -2.609375 L 4.78125 -2.390625 L 5.046875 -2.0625 L 5.328125 -1.84375 L 5.6875 -1.671875 L 6.046875 -1.578125 L 6.453125 -1.484375 L 6.84375 -1.421875 L 7.6875 -1.390625 L 8.015625 -1.421875 L 8.40625 -1.453125 L 8.78125 -1.546875 L 9.109375 -1.671875 L 9.5 -1.6875 L 9.859375 -1.875 L 10.265625 -2.0625 L 10.59375 -2.171875 L 10.828125 -2.390625 L 11.203125 -2.578125 L 11.53125 -2.8125 L 11.765625 -3.0625 L 12.109375 -3.328125 L 12.375 -3.546875 L 12.65625 -3.8125 L 12.921875 -4.109375 L 13.203125 -4.453125 L 13.46875 -4.78125 L 13.65625 -5.078125 L 13.890625 -5.359375 L 14.109375 -5.75 L 14.34375 -6.015625 L 14.5 -6.453125 L 14.703125 -6.71875 L 15.21875 -6.90625 L 15.640625 -6.59375 L 15.734375 -6.078125 L 15.59375 -5.75 L 15.3125 -5.390625 L 15.125 -5.046875 L 14.890625 -4.65625 L 14.703125 -4.359375 L 14.40625 -4.0625 L 14.25 -3.71875 L 14.015625 -3.390625 L 13.703125 -3.0625 L 13.53125 -2.75 L 13.25 -2.484375 L 12.984375 -2.203125 L 12.65625 -1.9375 L 12.34375 -1.671875 L 12.140625 -1.359375 L 11.765625 -1.125 L 11.40625 -0.90625 L 11.140625 -0.671875 L 10.78125 -0.515625 L 10.5 -0.328125 L 10.078125 -0.15625 L 9.71875 0.03125 L 9.375 0.1875 L 9.015625 0.21875 L 8.5625 0.296875 L 8.203125 0.390625 L 7.875 0.453125 Z M 6.625 0.453125 "/></g></g></g><g fill="#000000" fill-opacity="1"><g transform="translate(108.959794, 31.546179)"><g><path d="M 19.03125 -13.5625 L 19.375 -13.375 L 19.515625 -12.859375 L 19.375 -12.46875 L 19.15625 -12.109375 L 18.96875 -11.828125 L 18.765625 -11.40625 L 18.578125 -11.078125 L 18.40625 -10.78125 L 18.09375 -10.40625 L 17.859375 -10.109375 L 17.578125 -9.84375 L 17.375 -9.53125 L 17.125 -9.265625 L 16.796875 -8.953125 L 16.46875 -8.6875 L 16.15625 -8.53125 L 15.828125 -8.265625 L 15.109375 -8.015625 L 14.671875 -7.90625 L 13.625 -7.84375 L 13.4375 -7.46875 L 13.25 -6.6875 L 13.28125 -6.328125 L 13.140625 -5.90625 L 13.046875 -5.515625 L 12.984375 -5.171875 L 12.828125 -4.78125 L 12.65625 -4.390625 L 12.53125 -4.078125 L 12.3125 -3.75 L 12.171875 -3.390625 L 11.921875 -3.03125 L 11.71875 -2.75 L 11.53125 -2.390625 L 11.28125 -2.09375 L 10.984375 -1.8125 L 10.65625 -1.546875 L 10.4375 -1.265625 L 10.171875 -1.03125 L 9.859375 -0.75 L 9.53125 -0.578125 L 9.109375 -0.328125 L 8.5 0.03125 L 8.140625 0.15625 L 7.75 0.265625 L 7.359375 0.328125 L 6.9375 0.453125 L 6.53125 0.421875 L 5.84375 0.421875 L 5.484375 0.453125 L 5.078125 0.328125 L 4.65625 0.21875 L 4.296875 0.125 L 4.03125 -0.03125 L 3.6875 -0.234375 L 3.359375 -0.484375 L 3.0625 -0.75 L 2.71875 -1.03125 L 2.515625 -1.296875 L 2.265625 -1.578125 L 2.15625 -1.90625 L 1.9375 -2.234375 L 1.78125 -2.640625 L 1.640625 -2.96875 L 1.640625 -3.421875 L 1.515625 -3.78125 L 1.484375 -4.109375 L 1.421875 -4.515625 L 1.390625 -5.296875 L 1.453125 -5.71875 L 1.546875 -6.046875 L 1.515625 -6.453125 L 1.578125 -6.875 L 1.671875 -7.203125 L 1.78125 -7.59375 L 1.90625 -8.015625 L 1.96875 -8.40625 L 2.15625 -8.71875 L 2.359375 -9.109375 L 2.421875 -9.46875 L 2.640625 -9.8125 L 2.875 -10.109375 L 3.03125 -10.4375 L 3.234375 -10.8125 L 3.484375 -11.078125 L 3.78125 -11.40625 L 4 -11.6875 L 4.296875 -11.953125 L 4.625 -12.234375 L 4.875 -12.5 L 5.203125 -12.734375 L 5.484375 -12.890625 L 5.875 -13.140625 L 6.234375 -13.28125 L 6.53125 -13.40625 L 6.90625 -13.59375 L 7.296875 -13.703125 L 7.625 -13.796875 L 8.046875 -13.890625 L 8.40625 -13.890625 L 9.203125 -13.921875 L 9.625 -13.828125 L 9.953125 -13.796875 L 10.328125 -13.625 L 10.71875 -13.46875 L 11.078125 -13.3125 L 11.34375 -13.109375 L 11.71875 -12.859375 L 12.015625 -12.59375 L 12.25 -12.28125 L 12.53125 -12.015625 L 12.71875 -11.71875 L 12.953125 -11.28125 L 13.078125 -10.953125 L 13.203125 -10.5625 L 13.25 -10.171875 L 13.3125 -9.8125 L 13.703125 -9.328125 L 14.53125 -9.328125 L 14.890625 -9.40625 L 15.28125 -9.46875 L 15.640625 -9.65625 L 15.890625 -9.890625 L 16.25 -10.109375 L 16.578125 -10.375 L 16.765625 -10.65625 L 17.015625 -10.984375 L 17.375 -11.28125 L 17.609375 -11.59375 L 17.796875 -11.953125 L 17.953125 -12.28125 L 18.15625 -12.59375 L 18.34375 -12.953125 L 18.609375 -13.375 Z M 6.71875 -1.390625 L 7.078125 -1.453125 L 7.46875 -1.640625 L 7.8125 -1.75 L 8.265625 -1.90625 L 8.59375 -2.125 L 8.890625 -2.359375 L 9.109375 -2.65625 L 9.40625 -2.90625 L 9.6875 -3.234375 L 9.890625 -3.484375 L 10.203125 -3.84375 L 10.40625 -4.140625 L 10.5625 -4.515625 L 10.6875 -4.875 L 10.859375 -5.265625 L 11.046875 -5.5625 L 11.140625 -5.96875 L 11.171875 -6.390625 L 11.265625 -6.78125 L 11.40625 -7.140625 L 11.46875 -7.5 L 11.5 -7.90625 L 11.40625 -8.6875 L 11.4375 -9.109375 L 11.34375 -9.53125 L 11.203125 -9.859375 L 11.109375 -10.296875 L 10.921875 -10.625 L 10.59375 -10.953125 L 10.40625 -11.234375 L 10.140625 -11.53125 L 9.6875 -11.75 L 9.40625 -11.859375 L 8.984375 -11.984375 L 8.234375 -11.953125 L 7.875 -11.953125 L 7.390625 -11.796875 L 7.078125 -11.6875 L 6.6875 -11.46875 L 6.390625 -11.3125 L 6.078125 -11.078125 L 5.75 -10.828125 L 5.453125 -10.53125 L 5.296875 -10.265625 L 5.03125 -10.015625 L 4.71875 -9.65625 L 4.59375 -9.296875 L 4.421875 -8.984375 L 4.203125 -8.65625 L 4.0625 -8.265625 L 3.90625 -7.921875 L 3.78125 -7.53125 L 3.625 -7.140625 L 3.546875 -6.78125 L 3.515625 -6.421875 L 3.484375 -6.015625 L 3.390625 -5.5625 L 3.484375 -4.84375 L 3.453125 -4.390625 L 3.609375 -4.078125 L 3.6875 -3.6875 L 3.8125 -3.296875 L 3.90625 -2.96875 L 4.078125 -2.640625 L 4.328125 -2.296875 L 4.625 -2.0625 L 5 -1.78125 L 5.296875 -1.640625 L 5.59375 -1.515625 L 6.015625 -1.453125 Z M 6.71875 -1.390625 "/></g></g></g><g clip-path="url(#04063522c1)"><path fill="#ffe51f" d="M 40.835938 30.820312 L 42.027344 26.769531 L 22.847656 5.941406 C 15.9375 10.046875 11.132812 15.472656 8.46875 22.226562 Z M 40.835938 30.820312 " fill-opacity="1" fill-rule="evenodd"/></g><g clip-path="url(#56f203b555)"><path fill="#ffcc33" d="M 8.46875 22.226562 C 21.492188 25.519531 32.277344 28.390625 40.835938 30.820312 C 39.832031 34.738281 39.335938 36.691406 39.335938 36.691406 C 15.6875 36.421875 9.453125 36.351562 9.453125 36.351562 C 7.234375 33.019531 6.03125 26.734375 8.46875 22.226562 Z M 8.46875 22.226562 " fill-opacity="1" fill-rule="evenodd"/></g><path fill="#f2bd1f" d="M 22.253906 12.007812 C 22.253906 12.210938 22.21875 12.40625 22.140625 12.589844 C 22.066406 12.777344 21.957031 12.941406 21.816406 13.082031 C 21.675781 13.226562 21.511719 13.335938 21.328125 13.414062 C 21.144531 13.488281 20.953125 13.527344 20.753906 13.527344 C 20.554688 13.527344 20.363281 13.488281 20.179688 13.414062 C 19.996094 13.335938 19.835938 13.226562 19.695312 13.082031 C 19.554688 12.941406 19.445312 12.777344 19.367188 12.589844 C 19.292969 12.40625 19.253906 12.210938 19.253906 12.007812 C 19.253906 11.808594 19.292969 11.613281 19.367188 11.429688 C 19.445312 11.242188 19.554688 11.078125 19.695312 10.933594 C 19.835938 10.792969 19.996094 10.683594 20.179688 10.605469 C 20.363281 10.527344 20.554688 10.488281 20.753906 10.488281 C 20.953125 10.488281 21.144531 10.527344 21.328125 10.605469 C 21.511719 10.683594 21.675781 10.792969 21.816406 10.933594 C 21.957031 11.078125 22.066406 11.242188 22.140625 11.429688 C 22.21875 11.613281 22.253906 11.808594 22.253906 12.007812 Z M 22.253906 12.007812 " fill-opacity="1" fill-rule="nonzero"/><path fill="#f2bd1f" d="M 19.75 18.328125 C 19.75 18.605469 19.699219 18.871094 19.59375 19.125 C 19.492188 19.378906 19.34375 19.601562 19.152344 19.796875 C 18.957031 19.992188 18.738281 20.140625 18.484375 20.246094 C 18.234375 20.351562 17.972656 20.402344 17.703125 20.402344 C 17.429688 20.402344 17.167969 20.351562 16.917969 20.246094 C 16.667969 20.140625 16.445312 19.992188 16.253906 19.796875 C 16.0625 19.601562 15.914062 19.378906 15.808594 19.125 C 15.703125 18.871094 15.652344 18.605469 15.652344 18.328125 C 15.652344 18.054688 15.703125 17.789062 15.808594 17.535156 C 15.914062 17.28125 16.0625 17.058594 16.253906 16.863281 C 16.445312 16.667969 16.667969 16.519531 16.917969 16.414062 C 17.167969 16.308594 17.429688 16.253906 17.703125 16.253906 C 17.972656 16.253906 18.234375 16.308594 18.484375 16.414062 C 18.738281 16.519531 18.957031 16.667969 19.152344 16.863281 C 19.34375 17.058594 19.492188 17.28125 19.59375 17.535156 C 19.699219 17.789062 19.75 18.054688 19.75 18.328125 Z M 19.75 18.328125 " fill-opacity="1" fill-rule="nonzero"/><path fill="#f2bd1f" d="M 25.152344 17.402344 C 25.398438 17.441406 25.628906 17.53125 25.84375 17.664062 C 26.058594 17.796875 26.238281 17.96875 26.386719 18.175781 C 26.53125 18.382812 26.632812 18.609375 26.691406 18.855469 C 26.75 19.101562 26.757812 19.351562 26.71875 19.605469 C 26.679688 19.855469 26.59375 20.089844 26.460938 20.304688 C 26.328125 20.523438 26.160156 20.703125 25.957031 20.851562 C 25.753906 21 25.527344 21.105469 25.285156 21.164062 C 25.039062 21.222656 24.792969 21.230469 24.542969 21.191406 C 24.296875 21.148438 24.066406 21.0625 23.851562 20.929688 C 23.636719 20.792969 23.457031 20.625 23.3125 20.417969 C 23.164062 20.210938 23.0625 19.984375 23.003906 19.738281 C 22.945312 19.488281 22.9375 19.238281 22.976562 18.988281 C 23.019531 18.738281 23.105469 18.503906 23.234375 18.289062 C 23.367188 18.070312 23.535156 17.886719 23.738281 17.738281 C 23.945312 17.589844 24.167969 17.488281 24.414062 17.429688 C 24.65625 17.371094 24.902344 17.363281 25.152344 17.402344 Z M 25.152344 17.402344 " fill-opacity="1" fill-rule="nonzero"/><path fill="#f2bd1f" d="M 34.738281 24.554688 C 34.738281 24.742188 34.703125 24.921875 34.632812 25.09375 C 34.5625 25.269531 34.460938 25.421875 34.328125 25.554688 C 34.199219 25.6875 34.046875 25.789062 33.875 25.863281 C 33.707031 25.933594 33.527344 25.96875 33.339844 25.96875 C 33.15625 25.96875 32.976562 25.933594 32.808594 25.863281 C 32.636719 25.789062 32.484375 25.6875 32.351562 25.554688 C 32.222656 25.421875 32.121094 25.269531 32.050781 25.09375 C 31.980469 24.921875 31.945312 24.742188 31.945312 24.554688 C 31.945312 24.367188 31.980469 24.1875 32.050781 24.011719 C 32.121094 23.839844 32.222656 23.6875 32.351562 23.554688 C 32.484375 23.421875 32.636719 23.320312 32.808594 23.246094 C 32.976562 23.175781 33.15625 23.140625 33.339844 23.140625 C 33.527344 23.140625 33.707031 23.175781 33.875 23.246094 C 34.046875 23.320312 34.199219 23.421875 34.328125 23.554688 C 34.460938 23.6875 34.5625 23.839844 34.632812 24.011719 C 34.703125 24.1875 34.738281 24.367188 34.738281 24.554688 Z M 34.738281 24.554688 " fill-opacity="1" fill-rule="nonzero"/><path fill="#cc9900" d="M 21.535156 31.054688 C 21.535156 31.40625 21.46875 31.742188 21.335938 32.0625 C 21.207031 32.386719 21.015625 32.667969 20.773438 32.917969 C 20.53125 33.164062 20.25 33.351562 19.929688 33.488281 C 19.613281 33.621094 19.28125 33.6875 18.9375 33.6875 C 18.59375 33.6875 18.261719 33.621094 17.941406 33.488281 C 17.625 33.351562 17.34375 33.164062 17.101562 32.917969 C 16.855469 32.667969 16.667969 32.386719 16.535156 32.0625 C 16.40625 31.742188 16.339844 31.40625 16.339844 31.054688 C 16.339844 30.707031 16.40625 30.371094 16.535156 30.050781 C 16.667969 29.726562 16.855469 29.441406 17.101562 29.195312 C 17.34375 28.949219 17.625 28.757812 17.941406 28.625 C 18.261719 28.492188 18.59375 28.425781 18.9375 28.425781 C 19.28125 28.425781 19.613281 28.492188 19.929688 28.625 C 20.25 28.757812 20.53125 28.949219 20.773438 29.195312 C 21.015625 29.441406 21.207031 29.726562 21.335938 30.050781 C 21.46875 30.371094 21.535156 30.707031 21.535156 31.054688 Z M 21.535156 31.054688 " fill-opacity="1" fill-rule="nonzero"/><path fill="#cc9900" d="M 13.933594 27.101562 C 14.085938 27.109375 14.230469 27.152344 14.363281 27.21875 C 14.5 27.289062 14.621094 27.382812 14.71875 27.5 C 14.820312 27.613281 14.894531 27.746094 14.941406 27.890625 C 14.988281 28.039062 15.007812 28.1875 14.996094 28.34375 C 14.988281 28.496094 14.945312 28.644531 14.878906 28.78125 C 14.8125 28.917969 14.71875 29.039062 14.605469 29.140625 C 14.488281 29.242188 14.359375 29.316406 14.214844 29.363281 C 14.070312 29.414062 13.921875 29.433594 13.769531 29.421875 C 13.617188 29.410156 13.472656 29.371094 13.335938 29.300781 C 13.199219 29.230469 13.082031 29.140625 12.984375 29.023438 C 12.882812 28.90625 12.808594 28.773438 12.761719 28.628906 C 12.714844 28.480469 12.695312 28.332031 12.707031 28.179688 C 12.714844 28.023438 12.753906 27.878906 12.824219 27.738281 C 12.890625 27.601562 12.984375 27.484375 13.097656 27.382812 C 13.214844 27.28125 13.34375 27.207031 13.488281 27.15625 C 13.632812 27.109375 13.78125 27.089844 13.933594 27.101562 Z M 13.933594 27.101562 " fill-opacity="1" fill-rule="nonzero"/><path fill="#cc9900" d="M 26.917969 29.207031 C 26.917969 29.386719 26.886719 29.5625 26.816406 29.730469 C 26.75 29.894531 26.652344 30.042969 26.523438 30.171875 C 26.398438 30.300781 26.253906 30.398438 26.089844 30.464844 C 25.921875 30.535156 25.75 30.570312 25.574219 30.570312 C 25.394531 30.570312 25.222656 30.535156 25.058594 30.464844 C 24.894531 30.398438 24.746094 30.300781 24.621094 30.171875 C 24.496094 30.042969 24.398438 29.894531 24.328125 29.730469 C 24.261719 29.5625 24.226562 29.386719 24.226562 29.207031 C 24.226562 29.027344 24.261719 28.851562 24.328125 28.6875 C 24.398438 28.519531 24.496094 28.371094 24.621094 28.242188 C 24.746094 28.117188 24.894531 28.015625 25.058594 27.949219 C 25.222656 27.878906 25.394531 27.84375 25.574219 27.84375 C 25.75 27.84375 25.921875 27.878906 26.089844 27.949219 C 26.253906 28.015625 26.398438 28.117188 26.523438 28.242188 C 26.652344 28.371094 26.75 28.519531 26.816406 28.6875 C 26.886719 28.851562 26.917969 29.027344 26.917969 29.207031 Z M 26.917969 29.207031 " fill-opacity="1" fill-rule="nonzero"/><path fill="#cc9900" d="M 30.066406 33.460938 C 30.066406 33.601562 30.039062 33.738281 29.988281 33.867188 C 29.933594 33.996094 29.859375 34.109375 29.761719 34.210938 C 29.660156 34.308594 29.546875 34.386719 29.421875 34.441406 C 29.292969 34.492188 29.160156 34.519531 29.019531 34.519531 C 28.882812 34.519531 28.75 34.492188 28.621094 34.441406 C 28.492188 34.386719 28.378906 34.308594 28.28125 34.210938 C 28.183594 34.109375 28.105469 33.996094 28.054688 33.867188 C 28 33.738281 27.972656 33.601562 27.972656 33.460938 C 27.972656 33.320312 28 33.1875 28.054688 33.054688 C 28.105469 32.925781 28.183594 32.8125 28.28125 32.710938 C 28.378906 32.613281 28.492188 32.535156 28.621094 32.484375 C 28.75 32.429688 28.882812 32.402344 29.019531 32.402344 C 29.160156 32.402344 29.292969 32.429688 29.421875 32.484375 C 29.546875 32.535156 29.660156 32.613281 29.761719 32.710938 C 29.859375 32.8125 29.933594 32.925781 29.988281 33.054688 C 30.039062 33.1875 30.066406 33.320312 30.066406 33.460938 Z M 30.066406 33.460938 " fill-opacity="1" fill-rule="nonzero"/><path fill="#cc9900" d="M 36.78125 32.984375 C 36.78125 33.164062 36.746094 33.339844 36.675781 33.503906 C 36.609375 33.671875 36.511719 33.820312 36.386719 33.949219 C 36.257812 34.074219 36.113281 34.175781 35.949219 34.242188 C 35.785156 34.3125 35.613281 34.347656 35.433594 34.347656 C 35.253906 34.347656 35.082031 34.3125 34.917969 34.242188 C 34.753906 34.175781 34.609375 34.074219 34.480469 33.949219 C 34.355469 33.820312 34.257812 33.671875 34.191406 33.503906 C 34.121094 33.339844 34.085938 33.164062 34.085938 32.984375 C 34.085938 32.804688 34.121094 32.628906 34.191406 32.460938 C 34.257812 32.296875 34.355469 32.148438 34.480469 32.019531 C 34.609375 31.890625 34.753906 31.792969 34.917969 31.722656 C 35.082031 31.65625 35.253906 31.621094 35.433594 31.621094 C 35.613281 31.621094 35.785156 31.65625 35.949219 31.722656 C 36.113281 31.792969 36.257812 31.890625 36.386719 32.019531 C 36.511719 32.148438 36.609375 32.296875 36.675781 32.460938 C 36.746094 32.628906 36.78125 32.804688 36.78125 32.984375 Z M 36.78125 32.984375 " fill-opacity="1" fill-rule="nonzero"/></svg>